<svg width="396" height="210" viewBox="0 0 396 210" fill="none" xmlns="http://www.w3.org/2000/svg">
<path d="M368.587 207.494L301.885 207.903L216.818 207.62L26.6321 206.989C26.6321 206.989 -0.650688 186.793 0.0118753 151.601C0.434885 129.115 6.07349 81.6469 65.168 70.5508C120.593 60.144 105.857 -6.0567 187.578 0.448818C219.823 3.01573 234.131 28.4921 259.052 21.7053C364.368 -6.9754 387.488 52.666 395.415 110.563C398.339 131.925 390.442 198.393 368.587 207.494Z" fill="#EBF3FA"/>
<path d="M374.984 209.541H21.0159C20.7715 209.541 20.5715 209.256 20.5715 208.908V208.536C20.5715 208.188 20.7715 207.903 21.0159 207.903H374.984C375.229 207.903 375.429 208.188 375.429 208.536V208.908C375.429 209.256 375.229 209.541 374.984 209.541Z" fill="#D3E3F7"/>
<path d="M208.626 46.3185H187.374C186.399 46.3185 185.601 45.6042 185.601 44.731V26.3727C185.601 25.4995 186.399 24.7852 187.374 24.7852H208.626C209.602 24.7852 210.4 25.4995 210.4 26.3727V44.731C210.4 45.6042 209.602 46.3185 208.626 46.3185Z" fill="#C0D8FB"/>
<path d="M207.705 45.3864H188.295C187.404 45.3864 186.675 44.7338 186.675 43.9364V27.1687C186.675 26.3713 187.404 25.7188 188.295 25.7188H207.705C208.596 25.7188 209.325 26.3713 209.325 27.1687V43.9364C209.325 44.7339 208.596 45.3864 207.705 45.3864Z" fill="#DFEBFD"/>
<path d="M197.487 27.6835C197.487 27.4294 197.717 27.2236 198 27.2236C198.284 27.2236 198.514 27.4294 198.514 27.6835C198.514 27.9374 198.284 28.1433 198 28.1433C197.717 28.1433 197.487 27.9374 197.487 27.6835Z" fill="#B7D3F3"/>
<path d="M201.632 28.3332C201.77 28.1112 202.082 28.0314 202.33 28.1546C202.578 28.2779 202.668 28.5578 202.53 28.7799C202.392 29.0019 202.079 29.0817 201.831 28.9585C201.583 28.835 201.494 28.5551 201.632 28.3332Z" fill="#B7D3F3"/>
<path d="M205.183 30.8586C205.421 30.721 205.739 30.7824 205.893 30.9958C206.047 31.2092 205.978 31.4937 205.74 31.6314C205.501 31.7691 205.183 31.7076 205.03 31.4942C204.876 31.2808 204.944 30.9963 205.183 30.8586Z" fill="#B7D3F3"/>
<path d="M206.942 34.7666C207.225 34.7666 207.455 34.9724 207.455 35.2263C207.455 35.4803 207.225 35.6861 206.942 35.6861C206.658 35.6861 206.428 35.4803 206.428 35.2263C206.428 34.9725 206.658 34.7666 206.942 34.7666Z" fill="#B7D3F3"/>
<path d="M206.044 39.3016C206.244 39.4812 206.244 39.7723 206.044 39.9518C205.843 40.1313 205.518 40.1313 205.317 39.9518C205.117 39.7723 205.117 39.4812 205.317 39.3016C205.518 39.1221 205.843 39.1221 206.044 39.3016Z" fill="#B7D3F3"/>
<path d="M202.455 42.9822C202.739 42.9822 202.969 42.7763 202.969 42.5223C202.969 42.2684 202.739 42.0625 202.455 42.0625C202.171 42.0625 201.941 42.2684 201.941 42.5223C201.941 42.7763 202.171 42.9822 202.455 42.9822Z" fill="#B7D3F3"/>
<path d="M197.487 43.6902C197.487 43.4362 197.717 43.2305 198 43.2305C198.284 43.2305 198.514 43.4363 198.514 43.6902C198.514 43.9441 198.284 44.1499 198 44.1499C197.717 44.1499 197.487 43.9441 197.487 43.6902Z" fill="#B7D3F3"/>
<path d="M194.352 28.3332C194.214 28.1112 193.902 28.0314 193.654 28.1546C193.406 28.2779 193.316 28.5578 193.454 28.7799C193.592 29.0019 193.905 29.0817 194.153 28.9585C194.401 28.835 194.49 28.5551 194.352 28.3332Z" fill="#B7D3F3"/>
<path d="M190.801 30.8586C190.563 30.721 190.245 30.7824 190.091 30.9958C189.937 31.2092 190.006 31.4937 190.244 31.6314C190.482 31.7691 190.8 31.7076 190.954 31.4942C191.108 31.2808 191.039 30.9963 190.801 30.8586Z" fill="#B7D3F3"/>
<path d="M189.042 34.7666C188.758 34.7666 188.528 34.9724 188.528 35.2263C188.528 35.4803 188.758 35.6861 189.042 35.6861C189.326 35.6861 189.556 35.4803 189.556 35.2263C189.556 34.9725 189.326 34.7666 189.042 34.7666Z" fill="#B7D3F3"/>
<path d="M189.94 39.3016C189.74 39.4812 189.74 39.7723 189.94 39.9518C190.141 40.1313 190.466 40.1313 190.667 39.9518C190.867 39.7723 190.867 39.4812 190.667 39.3016C190.466 39.1221 190.141 39.1221 189.94 39.3016Z" fill="#B7D3F3"/>
<path d="M193.166 42.1971C192.965 42.3767 192.965 42.6678 193.166 42.8473C193.367 43.0269 193.692 43.0269 193.893 42.8473C194.093 42.6678 194.093 42.3767 193.893 42.1971C193.692 42.0176 193.367 42.0176 193.166 42.1971Z" fill="#B7D3F3"/>
<path d="M197.862 35.2263C197.862 34.9724 198.092 34.7666 198.375 34.7666C198.659 34.7666 198.889 34.9724 198.889 35.2263C198.889 35.4803 198.659 35.6861 198.375 35.6861C198.092 35.6861 197.862 35.4802 197.862 35.2263Z" fill="#B7D3F3"/>
<path d="M198.446 29.4824H198.305V35.2262H198.446V29.4824Z" fill="#B7D3F3"/>
<path d="M201.588 32.6769L198.185 35.0674L198.445 35.3636L201.847 32.9731L201.588 32.6769Z" fill="#B7D3F3"/>
<path d="M82.9424 123.022C82.9424 123.022 78.6028 118.49 82.6749 115.612C82.6749 115.612 85.6493 114 88.0745 114.131C88.0745 114.131 84.6378 119.289 85.7497 119.802C86.8615 120.315 89.1161 113.808 89.1161 113.808C89.1161 113.808 95.8848 113.22 98.0622 114.157C98.0622 114.157 92.2758 118.396 93.4944 118.648C94.7131 118.9 100.963 114.74 100.963 114.74C100.963 114.74 107.263 115.7 106.927 119.14C106.591 122.579 104.42 123.641 103.466 123.55C102.512 123.458 96.9314 121.552 96.8099 122.251C96.6883 122.951 100.048 125.237 102.4 125.344C102.4 125.344 97.9588 129.728 95.0069 128.463C92.055 127.198 91.8031 125.192 89.9631 124.44C88.1231 123.688 86.5523 123.69 87.312 124.457C88.0717 125.224 91.4018 125.97 92.4541 127.636C93.5064 129.301 94.4505 130.425 91.3965 130.014C88.3426 129.602 83.3782 127.602 83.1604 125.312C82.9425 123.022 82.9424 123.022 82.9424 123.022Z" fill="#C8DBF4"/>
<path d="M103.832 119.232C103.832 119.232 86.7213 118.642 82.9426 123.021C82.9426 123.021 82.1069 125.261 79.5353 127.301L79.1345 128.279C79.1345 128.279 82.0995 125.481 83.1604 125.312C83.1604 125.312 81.5014 119.885 103.832 119.232Z" fill="#C8DBF4"/>
<path d="M79.5354 127.301C79.5354 127.301 75.8628 129.732 75.6077 134.076L76.2743 134.129C76.2743 134.129 77.4473 129.638 79.5675 127.882C81.6874 126.125 79.5354 127.301 79.5354 127.301Z" fill="#C8DBF4"/>
<path d="M67.7697 117.322C67.7697 117.322 74.673 113.862 71.4514 109.167C71.4514 109.167 68.8742 106.283 66.1129 105.542C66.1129 105.542 67.5855 112.544 66.1129 112.709C64.6402 112.874 65.1004 104.8 65.1004 104.8C65.1004 104.8 57.8289 101.67 54.9756 101.917C54.9756 101.917 59.4857 108.755 58.013 108.59C56.5404 108.425 51.4779 101.505 51.4779 101.505C51.4779 101.505 44.0222 100.269 42.8257 104.224C41.6292 108.178 43.5621 110.155 44.6666 110.402C45.7711 110.649 52.8584 110.567 52.6744 111.391C52.4902 112.215 47.7041 113.533 45.0347 112.791C45.0347 112.791 47.9801 119.299 51.8459 118.97C55.7118 118.64 56.9084 116.498 59.3016 116.334C61.6947 116.169 63.4436 116.746 62.247 117.322C61.0504 117.899 57.0005 117.511 55.0676 118.982C53.1346 120.453 51.5699 121.359 55.1596 122.018C58.7492 122.677 65.1924 122.265 66.481 119.794C67.7697 117.322 67.7697 117.322 67.7697 117.322Z" fill="#C8DBF4"/>
<path d="M46.2312 105.459C46.2312 105.459 65.5604 111.061 67.7695 117.322C67.7695 117.322 67.6774 120.123 69.6103 123.336V124.571C69.6103 124.571 67.5853 120.37 66.4808 119.793C66.4808 119.793 70.807 114.356 46.2312 105.459Z" fill="#C8DBF4"/>
<path d="M69.6105 123.335C69.6105 123.335 72.5914 127.387 70.892 132.318L70.125 132.134C70.125 132.134 70.8694 126.702 69.3099 123.97C67.7505 121.238 69.6105 123.335 69.6105 123.335Z" fill="#C8DBF4"/>
<path d="M78.7521 112.552C78.7521 112.552 69.6523 107.991 73.8989 101.801C73.8989 101.801 77.2962 98.0002 80.9361 97.0228C80.9361 97.0228 78.9948 106.253 80.9361 106.47C82.8774 106.688 82.2707 96.0455 82.2707 96.0455C82.2707 96.0455 91.8557 91.9189 95.617 92.2448C95.617 92.2448 89.6718 101.258 91.6131 101.041C93.5544 100.824 100.228 91.7019 100.228 91.7019C100.228 91.7019 110.055 90.073 111.633 95.2855C113.21 100.498 110.662 103.104 109.206 103.43C107.75 103.756 98.4077 103.647 98.6505 104.733C98.8932 105.819 105.202 107.556 108.721 106.579C108.721 106.579 104.838 115.158 99.7426 114.724C94.6467 114.289 93.0693 111.466 89.9148 111.249C86.7601 111.032 84.4549 111.792 86.0321 112.552C87.6095 113.312 92.948 112.801 95.4959 114.74C98.0439 116.678 100.106 117.873 95.3745 118.742C90.6426 119.61 82.1494 119.067 80.4509 115.81C78.7521 112.552 78.7521 112.552 78.7521 112.552Z" fill="#D4E4F8"/>
<path d="M107.144 96.9141C107.144 96.9141 81.6643 104.298 78.7522 112.551C78.7522 112.551 78.8736 116.244 76.3257 120.479V122.108C76.3257 122.108 78.995 116.569 80.451 115.809C80.451 115.809 74.7483 108.642 107.144 96.9141Z" fill="#D4E4F8"/>
<path d="M76.3255 120.479C76.3255 120.479 72.3962 125.819 74.6363 132.32L75.6471 132.077C75.6471 132.077 74.6659 124.917 76.7217 121.315C78.7776 117.714 76.3255 120.479 76.3255 120.479Z" fill="#D4E4F8"/>
<path d="M78.4456 146.417C88.2903 146.417 96.2708 139.274 96.2708 130.463H60.6206C60.6206 139.274 68.6011 146.417 78.4456 146.417Z" fill="#D4E4F8"/>
<path d="M96.5168 147.229H60.3743C60.3743 146.142 61.3588 145.261 62.5734 145.261H94.3177C95.5321 145.261 96.5168 146.142 96.5168 147.229Z" fill="#D4E4F8"/>
<path d="M96.6761 130.463H60.0344V130.952H96.6761V130.463Z" fill="#9FC1F4"/>
<path d="M100.246 148.204V149.735C100.246 150.271 100.052 150.709 99.8153 150.709H37.3907C37.1541 150.709 36.9602 150.271 36.9602 149.735V148.204C36.9602 147.669 37.1541 147.23 37.3907 147.23H99.8153C100.052 147.23 100.246 147.669 100.246 148.204Z" fill="#9ABFE2"/>
<path d="M100.246 148.204V149.735C100.246 150.271 100.068 150.709 99.8508 150.709H50.2925C50.0754 150.709 49.8975 150.271 49.8975 149.735V148.204C49.8975 147.669 50.0754 147.23 50.2925 147.23H99.8508C100.068 147.23 100.246 147.669 100.246 148.204Z" fill="#BAD4F4"/>
<path d="M84.4462 150.709H40.1287V208.522H84.4462V150.709Z" fill="#C8DBF4"/>
<path d="M96.8658 150.709H52.5481V208.522H96.8658V150.709Z" fill="#DFEBFD"/>
<path d="M94.4847 205.33H54.9302V152.342H94.4847V205.33ZM55.3571 204.948H94.0576V152.724H55.3571V204.948Z" fill="#B7D3F3"/>
<path d="M94.271 169.871H55.1433V170.253H94.271V169.871Z" fill="#B7D3F3"/>
<path d="M94.271 187.742H55.1433V188.124H94.271V187.742Z" fill="#B7D3F3"/>
<path d="M78.7167 155.759H71.4562C71.1038 155.759 70.8157 155.501 70.8157 155.186C70.8157 154.871 71.1039 154.612 71.4562 154.612H78.7169C79.0693 154.612 79.3576 154.87 79.3576 155.186C79.3574 155.501 79.0692 155.759 78.7167 155.759Z" fill="#B7D3F3"/>
<path d="M78.7167 173.235H71.4562C71.1038 173.235 70.8157 172.977 70.8157 172.661C70.8157 172.346 71.1039 172.088 71.4562 172.088H78.7169C79.0693 172.088 79.3576 172.346 79.3576 172.661C79.3574 172.977 79.0692 173.235 78.7167 173.235Z" fill="#B7D3F3"/>
<path d="M78.7167 191.451H71.4562C71.1038 191.451 70.8157 191.193 70.8157 190.877C70.8157 190.562 71.1039 190.304 71.4562 190.304H78.7169C79.0693 190.304 79.3576 190.562 79.3576 190.877C79.3574 191.193 79.0692 191.451 78.7167 191.451Z" fill="#B7D3F3"/>
<path d="M49.9444 139.301V147.334H40.8953V139.276C40.8953 139.198 40.899 139.121 40.9086 139.045C41.0036 138.122 41.666 137.348 42.5791 137.001C43.2302 136.755 43.6876 136.221 43.7238 135.589L43.7902 134.429H47.1122L47.1331 135.586C47.1463 136.216 47.5924 136.758 48.2416 137.003C49.1585 137.349 49.8248 138.124 49.9292 139.045C49.9387 139.13 49.9444 139.215 49.9444 139.301Z" fill="#C8DBF4"/>
<path d="M47.3496 134.939H43.4739L43.5767 134.033H47.2467L47.3496 134.939Z" fill="#B7D3F3"/>
<path d="M49.9444 139.303V144.484H40.8953V139.278C40.8953 139.2 40.899 139.123 40.9086 139.047H49.9292C49.9387 139.132 49.9444 139.217 49.9444 139.303Z" fill="white"/>
<path d="M57.3784 142.842V147.335H52.3167V142.828C52.3167 142.784 52.3187 142.741 52.324 142.698C52.3771 142.182 52.7477 141.749 53.2584 141.555C53.6227 141.417 53.8785 141.119 53.8987 140.765L53.9359 140.116H55.7941L55.8058 140.763C55.8132 141.116 56.0628 141.419 56.4259 141.556C56.9389 141.75 57.3115 142.183 57.3699 142.698C57.3752 142.746 57.3784 142.793 57.3784 142.842Z" fill="#C8DBF4"/>
<path d="M55.927 140.4H53.759L53.8165 139.894H55.8695L55.927 140.4Z" fill="#B7D3F3"/>
<path d="M57.3784 142.841V145.738H52.3167V142.826C52.3167 142.783 52.3187 142.74 52.324 142.697H57.3698C57.3752 142.745 57.3784 142.792 57.3784 142.841Z" fill="white"/>
<path d="M343.549 39.418H239.878V209.032H343.549V39.418Z" fill="#D3E3F7"/>
<path d="M339.124 42.3965H244.429V209.031H339.124V42.3965Z" fill="#E5EFFB"/>
<path d="M323.062 124.576C323.062 122.506 324.936 120.829 327.248 120.829C329.56 120.829 331.434 122.506 331.434 124.576C331.434 126.645 329.56 128.322 327.248 128.322C324.936 128.322 323.062 126.645 323.062 124.576Z" fill="#D3E3F7"/>
<path d="M311.459 67.6504H272.37V78.6948H311.459V67.6504Z" fill="#F5F9FD"/>
<path d="M304.205 71.0732H279.625V72.2094H304.205V71.0732Z" fill="#D3E3F7"/>
<path d="M300.764 74.1338H283.065V75.27H300.764V74.1338Z" fill="#D3E3F7"/>
<path d="M311.928 79.1145H271.901V67.2305H311.928V79.1145ZM272.839 78.2748H310.99V68.0701H272.839V78.2748Z" fill="#BAD4F4"/>
<path d="M246.978 55.9345C243.733 54.4278 241.133 55.3748 241.133 55.3748C231.205 54.3312 228.308 64.6947 228.443 68.2607C228.576 71.8262 229.032 75.6566 224.598 80.2891C211.79 93.6706 238.614 94.2608 238.614 94.2608C238.841 83.5695 253.16 87.4705 252.533 88.5537C270.889 92.4966 254.358 59.3611 246.978 55.9345Z" fill="#163560"/>
<path d="M208.678 100.505C208.678 100.505 206.932 98.1258 205.525 98.0791C204.118 98.0324 201.512 97.3793 201.721 97.8459C201.929 98.3123 203.545 98.3591 203.701 98.6389C203.858 98.9187 201.304 99.3386 200.574 99.3852C199.844 99.4318 198.124 99.3852 198.176 99.7118C198.229 100.038 201.276 101.391 203.427 101.204C205.577 101.018 208.236 101.764 208.236 101.764L208.678 100.505Z" fill="#FFB27D"/>
<path d="M233.93 101.274C233.93 101.274 232.981 102.957 231.26 104.889C229.185 107.215 225.986 109.902 221.969 110.432C220.05 110.686 218.174 110.316 216.449 109.63C216.445 109.629 216.443 109.629 216.443 109.629C211.565 107.691 207.897 103.234 207.897 103.234C207.037 101.135 208.444 99.7115 208.444 99.7115C208.444 99.7115 218.295 101.694 219.233 101.275C220.171 100.855 225.644 86.7443 226.946 84.9712C228.25 83.1981 232.691 82.2773 232.691 82.2773L233.93 101.274Z" fill="#F9DDBF"/>
<path d="M231.26 104.889C229.185 107.215 225.986 109.902 221.969 110.432C220.05 110.685 218.174 110.316 216.449 109.63C216.64 109.653 221.512 110.192 223.454 107.082C225.435 103.91 227.577 98.8716 230.52 100.551C231.79 101.276 231.733 103.077 231.26 104.889Z" fill="#F2CCAA"/>
<path d="M270.681 196.443C270.681 196.443 273.687 198.898 273.1 200.643C272.514 202.387 269.801 203.55 269.434 205.682C269.068 207.814 267.602 208.977 266.282 208.977C264.963 208.977 259.991 208.977 259.991 208.977C259.991 208.977 259.019 207.477 261.366 207.025C263.711 206.572 264.596 204.067 264.449 201.741C264.303 199.415 264.669 196.314 264.669 196.314L269.654 195.28L270.681 196.443Z" fill="#233862"/>
<path d="M245.24 197.485C245.24 197.485 246.321 207.886 245.002 208.467L228.114 208.437C228.114 208.437 228.114 206.692 230.826 206.304C233.539 205.917 238.304 204.495 239.11 201.33C239.917 198.164 245.24 197.485 245.24 197.485Z" fill="#233862"/>
<path d="M257.275 122.87C253.799 115.894 251.673 113.892 252.079 111.727C252.381 110.116 251.159 81.6828 251.159 81.6828C250.747 81.5686 249.92 81.4661 249.468 81.3762C248.043 81.0929 246.863 80.1968 246.372 78.966C245.78 77.4834 245.31 75.2942 245.321 72.5508L244.876 72.6293L237.391 73.9558C237.391 73.9558 237.561 76.0642 237.566 78.0503C237.566 78.0669 237.566 78.0833 237.566 78.0998C237.575 79.8247 236.311 81.3472 234.459 81.8256C233.514 82.0698 232.691 82.2787 232.691 82.2787C232.691 82.2787 229.943 89.302 229.418 96.517C228.893 103.732 234.416 106.866 229.376 121.285C224.231 136.01 259.195 126.724 257.275 122.87Z" fill="#FFB27D"/>
<path d="M237.39 73.9556C237.39 73.9556 237.561 76.064 237.566 78.0501C241.755 77.9444 243.968 74.5245 244.876 72.6289L237.39 73.9556Z" fill="#E8945B"/>
<path d="M235.992 75.8369C235.992 75.8369 245.902 75.9831 245.909 70.4582C245.916 64.9331 247.199 61.231 240.872 60.9039C234.545 60.5769 233.313 62.6839 232.81 64.5276C232.306 66.3712 233.414 75.6563 235.992 75.8369Z" fill="#FFB27D"/>
<path d="M236.359 60.7675C236.359 60.7675 239.072 67.2495 243.236 68.2079C247.4 69.1663 249.207 68.1676 249.207 68.1676C249.207 68.1676 246.013 65.8966 245.35 61.9323C245.35 61.9323 238.405 57.6824 236.359 60.7675Z" fill="#163560"/>
<path d="M237.031 61.2943C237.031 61.2943 235.019 61.9675 234.191 63.2809C233.381 64.5653 232.691 66.2663 232.851 68.3532C232.851 68.3532 230.807 63.9474 233.104 61.4551C235.54 58.8122 237.031 61.2943 237.031 61.2943Z" fill="#163560"/>
<path d="M238.148 72.4074C238.148 72.4074 237.464 73.2127 236.096 73.1547C234.994 73.1079 234.569 72.2523 234.569 72.2523C234.569 72.2523 236.593 71.8168 238.148 72.4074Z" fill="white"/>
<path d="M255.925 94.26C255.925 94.26 255.887 98.4667 255.636 102.277C255.468 104.803 255.209 107.156 254.804 107.992C253.787 110.092 252.641 110.433 252.641 110.433L243.774 112.378L240.657 113.061L230.825 110.433C230.825 110.433 226.347 99.2458 228.145 92.9484C229.943 86.6509 232.69 82.2778 232.69 82.2778C232.69 82.2778 240.713 89.3085 251.159 81.6816L255.925 94.26Z" fill="#F9DDBF"/>
<path d="M255.636 102.276C255.469 104.802 255.209 107.155 254.804 107.991C253.787 110.091 252.641 110.432 252.641 110.432L243.774 112.377L239.923 111.364C239.923 111.364 252.779 109.62 251.355 99.7207L255.636 102.276Z" fill="#F2CCAA"/>
<path d="M231.45 112.131C231.45 112.131 226.581 125.695 226.268 130.313C225.956 134.931 235.576 195.918 235.963 198.046C236.328 200.051 239.11 201.33 239.11 201.33C239.11 201.33 240.39 202.006 242.217 201.544C244.751 200.904 245.553 200.137 245.553 200.137C245.553 200.137 249.342 156.642 246.997 141.104C244.652 125.567 244.624 112.131 244.624 112.131H231.45Z" fill="#ED7D2B"/>
<path d="M252.079 111.727C252.079 111.727 259.506 120.645 260.198 126.675C260.891 132.704 261.285 153.882 262.76 159.759C264.235 165.637 269.654 176.948 269.654 195.281C269.654 195.281 269.091 196.331 267.352 196.891C266.795 197.07 266.05 197.244 265.326 197.392C263.892 197.686 262.42 197.059 261.765 195.879C258.101 189.276 246.43 167.98 245.831 163.56C245.408 160.431 241.722 139.726 233.684 127.577C231.754 124.66 234.868 113.061 234.868 113.061L252.079 111.727Z" fill="#F99746"/>
<path d="M230.672 110.037C230.672 110.037 232.627 111.421 236.51 111.491C241.148 111.574 252.641 110.433 252.641 110.433C252.641 110.433 253.152 111.709 253.131 113.058C253.131 113.058 239.094 116.227 230.962 113.521C230.962 113.521 229.913 111.754 230.672 110.037Z" fill="#233862"/>
<path d="M235.398 115.067C234.231 115.067 233.281 114.105 233.281 112.923C233.281 111.741 234.231 110.779 235.398 110.779C236.565 110.779 237.514 111.741 237.514 112.923C237.514 114.105 236.565 115.067 235.398 115.067ZM235.398 111.407C234.618 111.407 233.983 112.087 233.983 112.923C233.983 113.759 234.618 114.439 235.398 114.439C236.178 114.439 236.813 113.759 236.813 112.923C236.813 112.087 236.178 111.407 235.398 111.407Z" fill="white"/>
<path d="M267.908 122.069L245.82 126.332L248.49 137.412L270.578 133.149L267.908 122.069Z" fill="#163560"/>
<path d="M245.825 126.346C245.825 126.346 252 130.976 258.863 129.365C265.726 127.754 267.914 122.083 267.914 122.083L245.825 126.346Z" fill="#17467F"/>
<path d="M248.915 126.718C248.238 126.718 247.688 126.225 247.688 125.62C247.688 125.014 248.238 124.521 248.915 124.521C249.591 124.521 250.142 125.014 250.142 125.62C250.142 126.225 249.591 126.718 248.915 126.718ZM248.915 124.886C248.463 124.886 248.096 125.215 248.096 125.62C248.096 126.024 248.463 126.353 248.915 126.353C249.367 126.353 249.734 126.024 249.734 125.62C249.734 125.215 249.367 124.886 248.915 124.886Z" fill="#17467F"/>
<path d="M266.896 127.01C266.896 127.01 266.904 128.616 267.245 129.39C267.585 130.165 268.606 131.198 268.947 131.198C269.287 131.198 268.635 129.584 268.805 129.616C268.975 129.648 269.796 132.302 270.391 132.366C270.987 132.431 271.527 129.39 271.215 128.196C270.903 127.002 269.556 125.569 269.556 125.569L266.896 127.01Z" fill="#FFB27D"/>
<path d="M251.159 81.6826C251.159 81.6826 256.641 82.348 259.592 87.5513C261.872 91.5721 263.437 104.22 265.045 108.203C266.585 112.014 268.71 119.381 269.895 125.284C269.987 125.742 269.705 126.194 269.222 126.365L267.205 127.081C266.77 127.235 266.275 127.085 266.036 126.725C264.244 124.033 257.181 113.252 254.728 107.014C251.861 99.7225 246.496 95.1936 246.496 95.1936L251.159 81.6826Z" fill="#F9DDBF"/>
<path d="M248.511 124.768C248.498 124.587 247.223 106.552 247.467 96.4107C247.595 91.086 248.514 87.335 249.262 85.1259C250.079 82.7152 251.299 81.7287 251.331 81.6816L251.747 81.792C251.716 81.8365 248.333 86.3917 248.092 96.4227C247.849 106.54 249.122 124.552 249.135 124.733L248.511 124.768Z" fill="#0C2442"/>
<path d="M143.302 208.415H153.718C153.64 207.926 153.374 206.439 152.887 205.069C152.718 204.592 152.521 204.129 152.297 203.726C151.284 201.917 144.85 203.068 144.85 203.068C144.85 203.068 144.253 203.526 143.786 205.277C143.579 206.047 143.397 207.071 143.302 208.415Z" fill="#233862"/>
<path d="M162.423 66.0264C162.423 66.0264 170.722 67.3306 172.598 71.7151C174.474 76.0995 185.075 146.922 185.075 146.922C185.075 146.922 179.826 150.644 168.558 149.308C157.291 147.971 162.423 66.0264 162.423 66.0264Z" fill="#91CECF"/>
<path d="M174.776 205.474C174.805 206.742 174.983 207.942 175.497 208.416H196.098C195.836 207.749 195.095 206.745 192.98 206.438C190.577 206.09 186.83 205.054 184.643 202.985C183.864 202.25 183.283 201.382 183.029 200.369C182.06 196.506 175.015 201.552 175.015 201.552C175.015 201.552 174.731 203.586 174.776 205.474Z" fill="#233862"/>
<path d="M183.648 203.595C181.346 204.252 176.946 206.259 174.15 205.315C172.344 204.705 162.247 178.563 161.592 167.128C161.544 166.297 161.361 165.137 161.075 163.723C160.477 160.772 159.43 156.717 158.226 152.242C154.994 140.252 150.624 125.253 150.719 120.459C150.865 113.018 175.495 118.899 175.495 118.899C175.495 118.899 177.189 125.003 177.526 133.84C178.195 151.381 180.034 181.011 185.035 201.588C185.247 202.461 184.603 203.323 183.648 203.595Z" fill="#AF4138"/>
<path d="M166.553 120.485L153.533 204.944C153.533 204.944 147.815 206.178 143.368 205.191C143.368 205.191 139.556 160.272 139.874 149.412C140.192 138.552 137.138 120.354 140.571 118.347C144.004 116.339 166.553 120.485 166.553 120.485Z" fill="#C65447"/>
<path d="M138.925 69.8941C138.925 69.8941 152.608 61.9754 162.422 66.0251C163.986 66.6704 165.77 68.4713 167.047 69.7308C170.595 73.2293 177.527 128.806 177.527 128.806C177.527 128.806 157.849 134.771 138.925 126.782V69.8941Z" fill="white"/>
<path d="M163.201 65.8242C163.201 65.8242 177.053 70.9051 178.929 74.8091C180.805 78.7131 186.903 102.687 186.903 105.498C186.903 108.31 176.286 106.127 174.577 101.593C173.157 97.8275 168.37 86.261 165.846 78.9451L163.201 65.8242Z" fill="#ABDDDA"/>
<path d="M160.324 69.6968C157.3 70.2276 152.858 69.6617 149.606 67.7431C151.074 64.6041 151.676 62.1258 151.89 60.522C151.903 60.4366 151.912 60.354 151.921 60.2743C152.018 59.4431 152.004 58.879 151.959 58.6201H159.777C159.777 58.6201 161.914 59.4948 161.914 60.0994C161.914 60.4227 161.917 60.732 161.924 61.0273C161.939 61.8319 161.975 62.5345 162.022 63.1376C162.171 65.101 162.422 66.026 162.422 66.026C162.422 66.026 163.378 69.1607 160.324 69.6968Z" fill="#FFB27D"/>
<path d="M162.022 63.1367C156.1 64.1612 152.661 61.2643 151.89 60.5212C151.781 60.4148 151.725 60.3519 151.725 60.3519C151.787 60.3238 151.853 60.2987 151.922 60.2735C154.126 59.4743 159.13 60.1097 161.924 61.0263C161.939 61.831 161.976 62.5335 162.022 63.1367Z" fill="#E2915A"/>
<path d="M149.956 57.469C151.014 62.5672 158.364 62.3999 161.54 62.0793C162.434 61.9903 162.997 61.8882 162.997 61.8882C164.005 61.6473 164.567 60.2264 164.828 58.3652C165.347 54.6818 164.692 49.275 163.997 47.892C162.95 45.8112 160.979 43.5606 153.578 45.1845C146.175 46.8094 148.597 50.9368 149.956 57.469Z" fill="#FFB27D"/>
<path d="M164.272 45.0493C163.261 43.7956 161.116 42.264 159.167 41.3207C154.982 39.2941 149.625 41.3845 149.603 41.3933C143.557 43.7724 141.978 47.9124 145.184 54.3614C148.573 61.1809 151.8 60.4135 151.8 60.4135C151.8 60.4135 151.115 60.032 151.177 57.9067C151.181 57.7858 151.186 57.6849 151.192 57.5981C151.224 57.1625 151.052 56.7257 150.688 56.4352C149.937 55.8354 149.571 54.0211 150.2 53.5159C150.959 52.9066 152.025 53.6467 152.365 54.2161C152.663 54.6181 153.196 54.7589 153.692 54.4781C155.574 53.4134 154.351 51.2839 156.149 49.9812C157.948 48.6784 161.596 49.7723 164.294 48.734C167.825 47.5563 165.035 45.9938 164.272 45.0493Z" fill="#233862"/>
<path d="M165.115 152.124C163.923 152.398 162.744 152.623 161.571 152.797C160.535 152.955 159.503 153.073 158.469 153.151C152.614 153.607 146.732 152.87 139.856 151.105C138.308 150.708 136.709 150.257 135.048 149.757C134.872 149.704 135.5 133.433 136.226 116.65C136.299 114.917 136.376 113.178 136.451 111.451C136.484 110.719 136.515 109.991 136.548 109.265C137.206 94.4211 137.858 81.016 137.996 80.2939C138.31 78.6608 138.604 77.2683 138.924 76.062C139.861 72.5452 141.024 70.6168 143.56 68.9585C143.807 68.7906 145.835 67.8754 147.624 67.0791C149.106 66.4199 150.423 65.8447 150.423 65.8447C150.425 65.8447 150.425 65.8447 150.425 65.8447C151.014 66.1036 151.722 67.3128 152.463 69.0102C153.825 72.1393 155.295 76.9311 156.318 80.5093C156.321 80.5191 156.322 80.5247 156.322 80.5275C156.322 80.5289 156.322 80.5289 156.322 80.5289C156.981 82.8393 157.453 84.639 157.587 85.1554C157.816 86.0272 158.117 87.7149 158.472 90.003C158.954 93.1168 159.529 97.3431 160.137 102.139C160.2 102.632 160.262 103.131 160.325 103.635C160.397 104.21 160.471 104.792 160.542 105.38C160.566 105.569 160.589 105.758 160.611 105.947C160.846 107.846 161.082 109.806 161.316 111.799C161.512 113.446 164.303 114.637 164.495 116.312C164.606 117.296 164.838 126.372 165.137 129.269C165.351 131.338 165.199 151.151 165.115 152.124Z" fill="#ABDDDA"/>
<path d="M144.92 86.2773C144.911 86.3112 144.446 101.288 157.033 103.107C169.619 104.926 161.256 105.407 161.256 105.407C161.256 105.407 137.574 104.506 137.183 103.946C136.792 103.387 144.92 86.2773 144.92 86.2773Z" fill="#91CECF"/>
<path d="M155.555 109.537C155.555 109.537 155.319 109.687 154.865 109.949C154.857 109.952 154.85 109.957 154.842 109.962C152.922 111.059 147.222 114.049 138.924 116.055C138.054 116.266 137.153 116.466 136.226 116.651C136.299 114.918 136.376 113.179 136.451 111.452C135.355 111.375 134.306 111.25 133.332 111.066C133.364 110.838 133.399 110.609 133.432 110.381C134.487 109.994 135.536 109.62 136.548 109.266C137.372 108.978 138.169 108.703 138.924 108.449C142.333 107.29 144.86 106.505 144.86 106.505L154.95 109.365L155.555 109.537Z" fill="#91CECF"/>
<path d="M158.226 109.286C158.226 109.286 156.929 109.575 154.865 109.948C154.858 109.948 154.851 109.949 154.843 109.952C151.038 110.636 144.64 111.596 138.925 111.544C138.082 111.536 137.253 111.507 136.451 111.451C135.355 111.374 134.306 111.249 133.332 111.064C131.243 110.67 129.493 110.002 128.349 108.958C119.847 101.208 132.988 73.3931 135.75 70.6867C138.976 67.5267 144.863 66.4184 148.114 66.0378C148.25 66.0224 148.379 66.0071 148.506 65.9931C149.649 65.8714 150.382 65.8461 150.423 65.8447C150.425 65.8447 150.425 65.8447 150.425 65.8447C150.425 65.8447 150.17 66.578 149.743 67.8222C149.577 68.3036 149.385 68.862 149.174 69.4847C147.177 75.3372 143.324 86.839 141.626 93.3255C141.004 95.6988 140.671 97.4006 140.823 97.9087C141.486 100.124 148.354 101.263 152.706 101.767C154.521 101.977 155.899 102.076 156.207 102.097C156.229 102.097 156.249 102.099 156.271 102.101L156.523 103.025L157.125 105.24L157.717 107.416L158.226 109.286Z" fill="#ABDDDA"/>
<path d="M181.936 122.619L152.739 121.518L158.663 88.9521L187.859 90.0531L181.936 122.619Z" fill="#233862"/>
<path d="M156.271 102.101C156.271 102.101 161.954 101.747 162.24 102.932C162.904 105.696 157.353 107.966 155.555 107.811C153.757 107.655 154.963 101.917 156.271 102.101Z" fill="#FFB27D"/>
<path d="M186.263 96.666C186.263 96.666 180.825 95.1443 180.241 96.2387C178.881 98.79 183.694 102.147 185.484 102.368C187.273 102.59 187.583 96.7572 186.263 96.666Z" fill="#FFB27D"/>
<path d="M151.014 64.209C151.014 64.209 148.624 65.2289 147.425 66.7684C147.425 66.7684 156.362 80.6568 156.322 80.5267C156.282 80.3966 153.301 65.9879 151.014 64.209Z" fill="#91CECF"/>
<path d="M162.146 64.4053C162.933 64.6711 164.443 66.0554 164.783 66.8207L165.846 78.9454C165.846 78.9454 163.577 70.0473 162.422 66.0253C162.129 65.0029 162.183 64.6922 162.146 64.4053Z" fill="#91CECF"/>
<path d="M168.341 89.3168C168.341 89.3168 168.572 88.4132 169.901 88.5183C171.23 88.6232 178.696 88.9519 178.696 88.9519C178.696 88.9519 180.136 88.9307 180.003 89.7565L168.341 89.3168Z" fill="#C65447"/>
<path d="M159.777 58.6199C159.777 58.6199 160.746 59.4107 162.31 59.1657C163.237 59.0205 163.756 57.9412 163.756 57.9412C163.756 57.9412 161.974 57.6543 159.777 58.6199Z" fill="white"/>
</svg>
