<svg width="20" height="18" viewBox="0 0 20 18" fill="none" xmlns="http://www.w3.org/2000/svg">
<path d="M5.93 9.5C4.85 9.53348 3.96667 9.96205 3.28 10.7857H1.94C1.39333 10.7857 0.933333 10.6501 0.56 10.3789C0.186667 10.1077 0 9.71094 0 9.18862C0 6.82478 0.413333 5.64286 1.24 5.64286C1.28 5.64286 1.425 5.71317 1.675 5.85379C1.925 5.99442 2.25 6.13672 2.65 6.28069C3.05 6.42467 3.44667 6.49665 3.84 6.49665C4.28667 6.49665 4.73 6.41964 5.17 6.26562C5.13667 6.51339 5.12 6.73438 5.12 6.92857C5.12 7.85938 5.39 8.71652 5.93 9.5ZM16.64 15.8984C16.64 16.702 16.3967 17.3365 15.91 17.8019C15.4233 18.2673 14.7767 18.5 13.97 18.5H5.23C4.42333 18.5 3.77667 18.2673 3.29 17.8019C2.80333 17.3365 2.56 16.702 2.56 15.8984C2.56 15.5435 2.57167 15.197 2.595 14.8588C2.61833 14.5206 2.665 14.1557 2.735 13.764C2.805 13.3722 2.89333 13.0089 3 12.6741C3.10667 12.3393 3.25 12.0128 3.43 11.6948C3.61 11.3767 3.81667 11.1055 4.05 10.8811C4.28333 10.6568 4.56833 10.4777 4.905 10.3438C5.24167 10.2098 5.61333 10.1429 6.02 10.1429C6.08667 10.1429 6.23 10.2148 6.45 10.3588C6.67 10.5028 6.91333 10.6635 7.18 10.841C7.44667 11.0184 7.80333 11.1791 8.25 11.3231C8.69667 11.4671 9.14667 11.5391 9.6 11.5391C10.0533 11.5391 10.5033 11.4671 10.95 11.3231C11.3967 11.1791 11.7533 11.0184 12.02 10.841C12.2867 10.6635 12.53 10.5028 12.75 10.3588C12.97 10.2148 13.1133 10.1429 13.18 10.1429C13.5867 10.1429 13.9583 10.2098 14.295 10.3438C14.6317 10.4777 14.9167 10.6568 15.15 10.8811C15.3833 11.1055 15.59 11.3767 15.77 11.6948C15.95 12.0128 16.0933 12.3393 16.2 12.6741C16.3067 13.0089 16.395 13.3722 16.465 13.764C16.535 14.1557 16.5817 14.5206 16.605 14.8588C16.6283 15.197 16.64 15.5435 16.64 15.8984ZM6.4 3.07143C6.4 3.78125 6.15 4.38728 5.65 4.88951C5.15 5.39174 4.54667 5.64286 3.84 5.64286C3.13333 5.64286 2.53 5.39174 2.03 4.88951C1.53 4.38728 1.28 3.78125 1.28 3.07143C1.28 2.36161 1.53 1.75558 2.03 1.25335C2.53 0.751116 3.13333 0.5 3.84 0.5C4.54667 0.5 5.15 0.751116 5.65 1.25335C6.15 1.75558 6.4 2.36161 6.4 3.07143ZM13.44 6.92857C13.44 7.9933 13.065 8.90234 12.315 9.65569C11.565 10.409 10.66 10.7857 9.6 10.7857C8.54 10.7857 7.635 10.409 6.885 9.65569C6.135 8.90234 5.76 7.9933 5.76 6.92857C5.76 5.86384 6.135 4.9548 6.885 4.20145C7.635 3.4481 8.54 3.07143 9.6 3.07143C10.66 3.07143 11.565 3.4481 12.315 4.20145C13.065 4.9548 13.44 5.86384 13.44 6.92857ZM19.2 9.18862C19.2 9.71094 19.0133 10.1077 18.64 10.3789C18.2667 10.6501 17.8067 10.7857 17.26 10.7857H15.92C15.2333 9.96205 14.35 9.53348 13.27 9.5C13.81 8.71652 14.08 7.85938 14.08 6.92857C14.08 6.73438 14.0633 6.51339 14.03 6.26562C14.47 6.41964 14.9133 6.49665 15.36 6.49665C15.7533 6.49665 16.15 6.42467 16.55 6.28069C16.95 6.13672 17.275 5.99442 17.525 5.85379C17.775 5.71317 17.92 5.64286 17.96 5.64286C18.7867 5.64286 19.2 6.82478 19.2 9.18862ZM17.92 3.07143C17.92 3.78125 17.67 4.38728 17.17 4.88951C16.67 5.39174 16.0667 5.64286 15.36 5.64286C14.6533 5.64286 14.05 5.39174 13.55 4.88951C13.05 4.38728 12.8 3.78125 12.8 3.07143C12.8 2.36161 13.05 1.75558 13.55 1.25335C14.05 0.751116 14.6533 0.5 15.36 0.5C16.0667 0.5 16.67 0.751116 17.17 1.25335C17.67 1.75558 17.92 2.36161 17.92 3.07143Z" fill="white"/>
</svg>
