<svg width="21" height="23" viewBox="0 0 21 23" fill="none" xmlns="http://www.w3.org/2000/svg">
<path fill-rule="evenodd" clip-rule="evenodd" d="M2.62549 0C1.92929 0 1.26162 0.259629 0.769333 0.721773C0.27705 1.18392 0.000488281 1.81072 0.000488281 2.46429V20.5357C0.000488281 21.1893 0.27705 21.8161 0.769333 22.2782C1.26162 22.7404 1.92929 23 2.62549 23H18.3755C19.0717 23 19.7394 22.7404 20.2316 22.2782C20.7239 21.8161 21.0005 21.1893 21.0005 20.5357V8.073C20.9999 7.41965 20.7229 6.79327 20.2305 6.33157L14.256 0.721214C13.7639 0.259541 13.0967 0.000139448 12.401 0L2.62549 0Z" fill="#6BC2E6"/>
<path fill-rule="evenodd" clip-rule="evenodd" d="M10.3175 10.4733C10.3175 10.1465 10.4473 9.83312 10.6783 9.60205C10.9094 9.37098 11.2228 9.24116 11.5496 9.24116H15.6567C15.9835 9.24116 16.2969 9.37098 16.528 9.60205C16.7591 9.83312 16.8889 10.1465 16.8889 10.4733C16.8889 10.8001 16.7591 11.1135 16.528 11.3446C16.2969 11.5756 15.9835 11.7054 15.6567 11.7054H11.5496C11.2228 11.7054 10.9094 11.5756 10.6783 11.3446C10.4473 11.1135 10.3175 10.8001 10.3175 10.4733ZM10.3175 16.9938C10.3175 16.667 10.4473 16.3536 10.6783 16.1226C10.9094 15.8915 11.2228 15.7617 11.5496 15.7617H15.6567C15.9835 15.7617 16.2969 15.8915 16.528 16.1226C16.7591 16.3536 16.8889 16.667 16.8889 16.9938C16.8889 17.3206 16.7591 17.634 16.528 17.8651C16.2969 18.0961 15.9835 18.2259 15.6567 18.2259H11.5496C11.2228 18.2259 10.9094 18.0961 10.6783 17.8651C10.4473 17.634 10.3175 17.3206 10.3175 16.9938ZM8.75675 14.0629C9.02272 14.2527 9.20242 14.5404 9.25634 14.8626C9.31025 15.1849 9.23396 15.5154 9.04425 15.7814L6.74918 18.9915C6.6451 19.1369 6.51064 19.2579 6.3551 19.3461C6.19957 19.4343 6.0267 19.4876 5.8485 19.5023C5.6703 19.517 5.49104 19.4928 5.32316 19.4312C5.15528 19.3697 5.0028 19.2723 4.87632 19.1459L3.49961 17.7709C3.27505 17.5386 3.15071 17.2274 3.15336 16.9043C3.15602 16.5813 3.28545 16.2722 3.5138 16.0436C3.74214 15.8151 4.05112 15.6853 4.37418 15.6824C4.69724 15.6794 5.00854 15.8035 5.24103 16.0278L5.58932 16.3761L7.03832 14.3472C7.2286 14.0817 7.51648 13.9027 7.83871 13.8494C8.16093 13.7961 8.49114 13.8729 8.75675 14.0629ZM8.75675 7.43895C8.88867 7.53293 9.00078 7.65199 9.08664 7.78934C9.1725 7.92668 9.23044 8.07961 9.25715 8.23937C9.28385 8.39913 9.27879 8.56259 9.24226 8.72039C9.20573 8.87819 9.13844 9.02725 9.04425 9.15902L6.74918 12.3708C6.6451 12.5162 6.51064 12.6372 6.3551 12.7254C6.19957 12.8136 6.0267 12.8669 5.8485 12.8816C5.6703 12.8963 5.49104 12.8721 5.32316 12.8105C5.15528 12.749 5.0028 12.6516 4.87632 12.5252L3.49961 11.1485C3.28196 10.9149 3.16347 10.606 3.1691 10.2868C3.17474 9.96759 3.30405 9.66303 3.5298 9.43728C3.75555 9.21153 4.06011 9.08222 4.37932 9.07659C4.69853 9.07096 5.00746 9.18944 5.24103 9.40709L5.58932 9.75373L7.03832 7.72645C7.2281 7.46048 7.51574 7.28077 7.838 7.22686C8.16026 7.17294 8.49073 7.24923 8.75675 7.43895Z" fill="#1D7498"/>
</svg>
