<svg width="20" height="21" viewBox="0 0 20 21" fill="none" xmlns="http://www.w3.org/2000/svg">
<path d="M14.4468 0.5C14.7054 0.500032 14.9549 0.589956 15.1481 0.752715C15.3413 0.915475 15.4647 1.13975 15.495 1.383L15.5024 1.5V2.5H16.5579C17.3657 2.49996 18.1429 2.79233 18.7306 3.31728C19.3182 3.84224 19.6719 4.56011 19.7193 5.324L19.7246 5.5V17.5C19.7247 18.2652 19.416 19.0015 18.8619 19.5583C18.3078 20.115 17.5501 20.4501 16.7437 20.495L16.5579 20.5H3.89128C3.08355 20.5 2.30634 20.2077 1.71867 19.6827C1.13099 19.1578 0.777274 18.4399 0.729887 17.676L0.724609 17.5V5.5C0.724564 4.73479 1.03317 3.99849 1.5873 3.44174C2.14142 2.88499 2.89917 2.54989 3.7055 2.505L3.89128 2.5H4.94683V1.5C4.94713 1.24512 5.05015 0.999968 5.23484 0.814632C5.41953 0.629296 5.67195 0.517765 5.94053 0.502828C6.2091 0.487891 6.47357 0.570675 6.67988 0.734265C6.88619 0.897855 7.01878 1.1299 7.05055 1.383L7.05794 1.5V2.5H13.3913V1.5C13.3913 1.23478 13.5025 0.98043 13.7004 0.792893C13.8984 0.605357 14.1669 0.5 14.4468 0.5ZM17.6135 7.5H2.83572V17.125C2.83572 17.83 3.24316 18.411 3.76778 18.491L3.89128 18.5H16.5579C17.0994 18.5 17.5459 17.97 17.6061 17.285L17.6135 17.125V7.5Z" fill="#15475B"/>
</svg>
