<svg width="19" height="21" viewBox="0 0 19 21" fill="none" xmlns="http://www.w3.org/2000/svg">
<path d="M13.7222 0.5C13.9808 0.500032 14.2303 0.589956 14.4235 0.752715C14.6167 0.915475 14.7401 1.13975 14.7704 1.383L14.7778 1.5V2.5H15.8333C16.6411 2.49996 17.4183 2.79233 18.0059 3.31728C18.5936 3.84224 18.9473 4.56011 18.9947 5.324L19 5.5V17.5C19 18.2652 18.6914 19.0015 18.1373 19.5583C17.5832 20.115 16.8254 20.4501 16.0191 20.495L15.8333 20.5H3.16667C2.35894 20.5 1.58173 20.2077 0.994058 19.6827C0.406382 19.1578 0.0526643 18.4399 0.0052779 17.676L4.91936e-09 17.5V5.5C-4.49896e-05 4.73479 0.308565 3.99849 0.862688 3.44174C1.41681 2.88499 2.17456 2.54989 2.98089 2.505L3.16667 2.5H4.22222V1.5C4.22252 1.24512 4.32554 0.999968 4.51023 0.814632C4.69492 0.629296 4.94734 0.517765 5.21592 0.502828C5.48449 0.487891 5.74896 0.570675 5.95527 0.734265C6.16158 0.897855 6.29417 1.1299 6.32594 1.383L6.33333 1.5V2.5H12.6667V1.5C12.6667 1.23478 12.7779 0.98043 12.9758 0.792893C13.1738 0.605357 13.4423 0.5 13.7222 0.5ZM16.8889 7.5H2.11111V17.125C2.11111 17.83 2.51856 18.411 3.04317 18.491L3.16667 18.5H15.8333C16.3748 18.5 16.8213 17.97 16.8815 17.285L16.8889 17.125V7.5Z" fill="white"/>
</svg>
