<svg width="25" height="24" viewBox="0 0 25 24" fill="none" xmlns="http://www.w3.org/2000/svg">
<path d="M10.357 15.9623C10.3268 16.0226 10.3092 16.0885 10.3051 16.1558C10.301 16.2232 10.3107 16.2906 10.3334 16.3542C10.3561 16.4177 10.3914 16.476 10.4372 16.5255C10.483 16.575 10.5384 16.6147 10.6 16.6423L20.002 20.8353C21.498 21.5023 23.049 20.0213 22.308 18.6333L19.156 12.7293C18.911 12.2703 18.911 11.7293 19.156 11.2713L22.308 5.3673C23.049 3.9793 21.498 2.4973 20.002 3.1653L16.478 4.7373C16.0549 4.9257 15.7103 5.25511 15.503 5.6693L10.357 15.9623Z" fill="#15475B"/>
<path opacity="0.5" d="M8.966 15.39C8.9084 15.5049 8.80873 15.5933 8.68768 15.6367C8.56663 15.6801 8.43352 15.6752 8.316 15.623L3.493 13.473C2.169 12.883 2.169 11.118 3.493 10.528L12.39 6.55996C12.4841 6.51799 12.5889 6.50612 12.69 6.52597C12.7911 6.54581 12.8836 6.59641 12.9548 6.67083C13.0261 6.74526 13.0726 6.83988 13.088 6.94175C13.1035 7.04363 13.087 7.14778 13.041 7.23996L8.966 15.39Z" fill="#15475B"/>
</svg>
