<svg width="25" height="24" viewBox="0 0 25 24" fill="none" xmlns="http://www.w3.org/2000/svg">
<path d="M14.643 15.9623C14.6731 16.0227 14.6907 16.0886 14.6947 16.156C14.6987 16.2234 14.689 16.2909 14.6662 16.3544C14.6434 16.418 14.608 16.4762 14.5621 16.5257C14.5161 16.5752 14.4607 16.6148 14.399 16.6423L4.99699 20.8353C3.50199 21.5023 1.94999 20.0213 2.69099 18.6333L5.84299 12.7293C6.08799 12.2703 6.08799 11.7293 5.84299 11.2713L2.69099 5.3673C1.95099 3.9793 3.50099 2.4973 4.99699 3.1653L8.52199 4.7373C8.94473 4.92589 9.28897 5.25528 9.49599 5.6693L14.643 15.9623Z" fill="#15475B"/>
<path opacity="0.5" d="M16.0329 15.39C16.0905 15.5052 16.1904 15.5937 16.3117 15.6371C16.433 15.6805 16.5663 15.6755 16.6839 15.623L21.5069 13.473C22.8299 12.883 22.8299 11.118 21.5069 10.528L12.6089 6.55996C12.5148 6.51799 12.4101 6.50612 12.309 6.52597C12.2079 6.54581 12.1154 6.59641 12.0441 6.67083C11.9729 6.74526 11.9263 6.83988 11.9109 6.94175C11.8955 7.04363 11.9119 7.14778 11.9579 7.23996L16.0329 15.39Z" fill="#15475B"/>
</svg>
