<svg width="40" height="31" viewBox="0 0 40 31" fill="none" xmlns="http://www.w3.org/2000/svg">
<path d="M18.8502 23.1665L23.8335 18.1832L28.8168 23.1665L31.5002 20.4832L26.5168 15.4998L31.5002 10.5165L28.8168 7.83317L23.8335 12.8165L18.8502 7.83317L16.1668 10.5165L21.1502 15.4998L16.1668 20.4832L18.8502 23.1665ZM14.2502 30.8332C13.6432 30.8332 13.0682 30.6971 12.5252 30.4249C11.9821 30.1527 11.5349 29.7777 11.1835 29.2998L0.833496 15.4998L11.1835 1.69984C11.5349 1.22067 11.9821 0.845642 12.5252 0.574753C13.0682 0.303865 13.6432 0.167782 14.2502 0.166504H35.3335C36.3877 0.166504 37.2904 0.541531 38.0417 1.29159C38.7931 2.04164 39.1681 2.94439 39.1668 3.99984V26.9998C39.1668 28.054 38.7918 28.9567 38.0417 29.7081C37.2917 30.4594 36.3889 30.8344 35.3335 30.8332H14.2502Z" fill="#15475B"/>
</svg>
