<svg width="16" height="17" viewBox="0 0 16 17" fill="none" xmlns="http://www.w3.org/2000/svg">
<path d="M14.6667 16.8332H1.33333C1.11232 16.8332 0.900358 16.7454 0.744078 16.5891C0.587797 16.4328 0.5 16.2208 0.5 15.9998V0.999837C0.5 0.778823 0.587797 0.566862 0.744078 0.410582C0.900358 0.254301 1.11232 0.166504 1.33333 0.166504H14.6667C14.8877 0.166504 15.0996 0.254301 15.2559 0.410582C15.4122 0.566862 15.5 0.778823 15.5 0.999837V15.9998C15.5 16.2208 15.4122 16.4328 15.2559 16.5891C15.0996 16.7454 14.8877 16.8332 14.6667 16.8332ZM4.66667 5.99984V7.6665H11.3333V5.99984H4.66667ZM4.66667 9.33317V10.9998H11.3333V9.33317H4.66667Z" fill="#15475B"/>
</svg>
