<svg width="16" height="17" viewBox="0 0 16 17" fill="none" xmlns="http://www.w3.org/2000/svg">
<path d="M14.6667 16.8337H1.33333C1.11232 16.8337 0.900358 16.7459 0.744078 16.5896C0.587797 16.4333 0.5 16.2213 0.5 16.0003V1.00033C0.5 0.779312 0.587797 0.56735 0.744078 0.41107C0.900358 0.25479 1.11232 0.166992 1.33333 0.166992H14.6667C14.8877 0.166992 15.0996 0.25479 15.2559 0.41107C15.4122 0.56735 15.5 0.779312 15.5 1.00033V16.0003C15.5 16.2213 15.4122 16.4333 15.2559 16.5896C15.0996 16.7459 14.8877 16.8337 14.6667 16.8337ZM4.66667 6.00033V7.66699H11.3333V6.00033H4.66667ZM4.66667 9.33366V11.0003H11.3333V9.33366H4.66667Z" fill="white"/>
</svg>
