<svg width="25" height="25" viewBox="0 0 25 25" fill="none" xmlns="http://www.w3.org/2000/svg">
<path opacity="0.3" d="M21.875 12.5V19.7917C21.875 20.3442 21.6555 20.8741 21.2648 21.2648C20.8741 21.6555 20.3442 21.875 19.7917 21.875H5.20833C4.6558 21.875 4.12589 21.6555 3.73519 21.2648C3.34449 20.8741 3.125 20.3442 3.125 19.7917V12.5H21.875Z" fill="#15475B"/>
<path d="M16.6667 3.125C16.9429 3.125 17.2079 3.23475 17.4032 3.4301C17.5986 3.62545 17.7083 3.8904 17.7083 4.16667V5.20833H19.7917C20.3442 5.20833 20.8741 5.42783 21.2648 5.81853C21.6555 6.20923 21.875 6.73913 21.875 7.29167V10.4167H3.125V7.29167C3.125 6.73913 3.34449 6.20923 3.73519 5.81853C4.12589 5.42783 4.6558 5.20833 5.20833 5.20833H7.29167V4.16667C7.29167 3.8904 7.40141 3.62545 7.59676 3.4301C7.79211 3.23475 8.05707 3.125 8.33333 3.125C8.6096 3.125 8.87455 3.23475 9.0699 3.4301C9.26525 3.62545 9.375 3.8904 9.375 4.16667V5.20833H15.625V4.16667C15.625 3.8904 15.7347 3.62545 15.9301 3.4301C16.1254 3.23475 16.3904 3.125 16.6667 3.125Z" fill="#15475B"/>
</svg>
