<svg width="49" height="49" viewBox="0 0 49 49" fill="none" xmlns="http://www.w3.org/2000/svg">
<g clip-path="url(#clip0_2444_455)">
<path d="M25.8611 40.8333H5.44439C4.72241 40.8333 4.03 40.5465 3.51949 40.036C3.00897 39.5255 2.72217 38.8331 2.72217 38.1111V10.8889C2.72217 10.1669 3.00897 9.47449 3.51949 8.96398C4.03 8.45346 4.72241 8.16666 5.44439 8.16666H43.5555C44.2775 8.16666 44.9699 8.45346 45.4804 8.96398C45.9909 9.47449 46.2777 10.1669 46.2777 10.8889V25.0036C44.4644 22.6941 41.8268 21.1771 38.9187 20.7711C36.0106 20.3652 33.0583 21.1019 30.6819 22.8265C28.3054 24.5512 26.6897 27.1296 26.174 30.0202C25.6584 32.9109 26.2828 35.8889 27.9163 38.3289L26.6505 39.8805L25.8611 40.8333ZM9.52772 16.3333V18.5111H32.6666V16.3333H9.52772ZM9.52772 23.9555H24.4999V21.7778H9.52772V23.9555ZM9.52772 33.4833H23.1388V31.3055H9.52772V33.4833Z" fill="white"/>
<path d="M46.0463 32.1086C46.05 30.6734 45.6973 29.2598 45.02 27.9946C44.3426 26.7293 43.3618 25.652 42.1655 24.8592C40.9691 24.0664 39.5947 23.583 38.1655 23.4523C36.7363 23.3217 35.2971 23.5478 33.9768 24.1105C32.6565 24.6732 31.4966 25.5548 30.601 26.6762C29.7055 27.7977 29.1023 29.1239 28.8456 30.5359C28.5889 31.9479 28.6868 33.4016 29.1304 34.7665C29.5739 36.1313 30.3494 37.3648 31.3872 38.3561L28.7466 41.5819L29.9716 46.4955L34.9533 40.425C36.5302 40.8912 38.2083 40.8912 39.7852 40.425L44.7669 46.4955L45.9919 41.5819L43.3513 38.3561C44.2005 37.5517 44.8773 36.5832 45.3406 35.5092C45.8039 34.4352 46.044 33.2782 46.0463 32.1086ZM31.428 32.1086C31.4118 30.9288 31.7468 29.7709 32.3905 28.7821C33.0341 27.7932 33.9573 27.0182 35.0427 26.5554C36.128 26.0927 37.3265 25.9632 38.4856 26.1834C39.6447 26.4036 40.7122 26.9635 41.5522 27.792C42.3923 28.6206 42.9669 29.6802 43.2031 30.8362C43.4393 31.9921 43.3264 33.1923 42.8787 34.2839C42.431 35.3755 41.6688 36.3093 40.689 36.9666C39.7091 37.6239 38.5559 37.9749 37.3761 37.975C35.8128 37.9786 34.3115 37.3639 33.1998 36.2649C32.088 35.1659 31.456 33.6718 31.4416 32.1086H31.428Z" fill="white"/>
</g>
<defs>
<clipPath id="clip0_2444_455">
<rect width="49" height="49" fill="white"/>
</clipPath>
</defs>
</svg>
