<svg width="110" height="110" viewBox="0 0 110 110" fill="none" xmlns="http://www.w3.org/2000/svg">
<path fill-rule="evenodd" clip-rule="evenodd" d="M64.1667 93.9587V19.4795C64.1667 16.1428 64.1576 13.9795 63.9467 12.3937C63.7451 10.9041 63.4197 10.4366 63.1584 10.1753C62.8972 9.91408 62.4297 9.58866 60.9401 9.38699C59.3497 9.17616 57.1909 9.16699 53.8542 9.16699C50.5176 9.16699 48.3543 9.17616 46.7684 9.38699C45.2788 9.58866 44.8113 9.91408 44.5501 10.1753C44.2888 10.4366 43.9634 10.9041 43.7617 12.3937C43.5509 13.9841 43.5417 16.1428 43.5417 19.4795V93.9587H64.1667Z" fill="#15475B" fill-opacity="0.4"/>
<path opacity="0.7" d="M36.6667 40.1045C36.6667 39.1928 36.3046 38.3185 35.6599 37.6738C35.0153 37.0292 34.1409 36.667 33.2292 36.667H19.4792C18.5676 36.667 17.6932 37.0292 17.0486 37.6738C16.4039 38.3185 16.0417 39.1928 16.0417 40.1045V93.9587H36.6667V40.1045ZM91.6667 63.0212C91.6667 62.1095 91.3046 61.2351 90.6599 60.5905C90.0153 59.9458 89.1409 59.5837 88.2292 59.5837H74.4793C73.5676 59.5837 72.6932 59.9458 72.0486 60.5905C71.4039 61.2351 71.0417 62.1095 71.0417 63.0212V93.9587H91.6667V63.0212Z" fill="#15475B" fill-opacity="0.4"/>
<path opacity="0.5" d="M8.02075 93.958C7.10907 93.958 6.23473 94.3202 5.59007 94.9648C4.94542 95.6095 4.58325 96.4838 4.58325 97.3955C4.58325 98.3072 4.94542 99.1815 5.59007 99.8262C6.23473 100.471 7.10907 100.833 8.02075 100.833H99.6874C100.599 100.833 101.473 100.471 102.118 99.8262C102.763 99.1815 103.125 98.3072 103.125 97.3955C103.125 96.4838 102.763 95.6095 102.118 94.9648C101.473 94.3202 100.599 93.958 99.6874 93.958H8.02075Z" fill="#15475B" fill-opacity="0.4"/>
</svg>
