<svg width="39" height="39" viewBox="0 0 39 39" fill="none" xmlns="http://www.w3.org/2000/svg">
<path fill-rule="evenodd" clip-rule="evenodd" d="M19.5 39C22.0608 39 24.5965 38.4956 26.9623 37.5157C29.3282 36.5357 31.4778 35.0993 33.2886 33.2886C35.0993 31.4778 36.5357 29.3282 37.5157 26.9623C38.4956 24.5965 39 22.0608 39 19.5C39 16.9392 38.4956 14.4035 37.5157 12.0377C36.5357 9.67182 35.0993 7.52216 33.2886 5.71142C31.4778 3.90068 29.3282 2.46432 26.9623 1.48435C24.5965 0.504382 22.0608 -3.81585e-08 19.5 0C14.3283 7.70647e-08 9.36838 2.05446 5.71142 5.71142C2.05446 9.36838 0 14.3283 0 19.5C0 24.6717 2.05446 29.6316 5.71142 33.2886C9.36838 36.9455 14.3283 39 19.5 39ZM18.9973 27.3867L29.8307 14.3867L26.5027 11.6133L17.186 22.7912L12.3652 17.9682L9.3015 21.0318L15.8015 27.5318L17.4785 29.2088L18.9973 27.3867Z" fill="#429ABF"/>
</svg>
