<svg width="18" height="21" viewBox="0 0 18 21" fill="none" xmlns="http://www.w3.org/2000/svg">
<path d="M8.99996 0.328125C8.36681 0.328125 7.73985 0.455433 7.15488 0.70278C6.56992 0.950128 6.03841 1.31267 5.5907 1.76971C5.14299 2.22675 4.78785 2.76933 4.54555 3.36648C4.30325 3.96363 4.17854 4.60365 4.17854 5.25C4.17854 5.89635 4.30325 6.53637 4.54555 7.13352C4.78785 7.73067 5.14299 8.27325 5.5907 8.73029C6.03841 9.18733 6.56992 9.54987 7.15488 9.79722C7.73985 10.0446 8.36681 10.1719 8.99996 10.1719C9.63312 10.1719 10.2601 10.0446 10.845 9.79722C11.43 9.54987 11.9615 9.18733 12.4092 8.73029C12.8569 8.27325 13.2121 7.73067 13.4544 7.13352C13.6967 6.53637 13.8214 5.89635 13.8214 5.25C13.8214 4.60365 13.6967 3.96363 13.4544 3.36648C13.2121 2.76933 12.8569 2.22675 12.4092 1.76971C11.9615 1.31267 11.43 0.950128 10.845 0.70278C10.2601 0.455433 9.63312 0.328125 8.99996 0.328125ZM11.4107 13.1578C11.1937 13.1373 10.9687 13.125 10.7437 13.125H7.2522C7.0272 13.125 6.80621 13.1373 6.58523 13.1578V15.9264C7.24818 16.2381 7.71023 16.923 7.71023 17.7146C7.71023 18.8016 6.84639 19.6834 5.78166 19.6834C4.71693 19.6834 3.85309 18.8016 3.85309 17.7146C3.85309 16.9189 4.31514 16.234 4.97809 15.9264V13.5311C2.45086 14.4785 0.642822 16.9641 0.642822 19.8762C0.642822 20.4955 1.13702 21 1.74372 21H16.2522C16.8589 21 17.3531 20.4955 17.3531 19.8762C17.3531 16.9641 15.5451 14.4826 13.0138 13.5352V15.0691C13.95 15.4055 14.6209 16.3201 14.6209 17.3906V18.7031C14.6209 19.1543 14.2593 19.5234 13.8174 19.5234C13.3754 19.5234 13.0138 19.1543 13.0138 18.7031V17.3906C13.0138 16.9395 12.6522 16.5703 12.2102 16.5703C11.7683 16.5703 11.4067 16.9395 11.4067 17.3906V18.7031C11.4067 19.1543 11.0451 19.5234 10.6031 19.5234C10.1611 19.5234 9.79952 19.1543 9.79952 18.7031V17.3906C9.79952 16.3201 10.4705 15.4096 11.4067 15.0691V13.1578H11.4107Z" fill="white"/>
</svg>
