<svg width="20" height="21" viewBox="0 0 20 21" fill="none" xmlns="http://www.w3.org/2000/svg">
<path d="M14.607 1.505C14.8457 1.26547 15.1293 1.07539 15.4416 0.945665C15.7538 0.81594 16.0886 0.749116 16.4268 0.749024C16.7649 0.748931 17.0998 0.815571 17.4121 0.945124C17.7245 1.07468 18.0082 1.2646 18.247 1.504L18.997 2.255C19.236 2.49369 19.4256 2.77716 19.555 3.0892C19.6844 3.40123 19.751 3.73571 19.751 4.0735C19.751 4.41129 19.6844 4.74577 19.555 5.0578C19.4256 5.36984 19.236 5.65331 18.997 5.892L11.397 13.496C11.1583 13.7351 10.8747 13.9247 10.5626 14.0541C10.2505 14.1835 9.91588 14.2501 9.578 14.25H7C6.80109 14.25 6.61032 14.171 6.46967 14.0303C6.32902 13.8897 6.25 13.6989 6.25 13.5V10.938C6.25 10.256 6.52 9.602 7.002 9.12L14.607 1.505Z" fill="#15475B"/>
<path d="M9.943 0.75H10C10.1989 0.75 10.3897 0.829018 10.5303 0.96967C10.671 1.11032 10.75 1.30109 10.75 1.5C10.75 1.69891 10.671 1.88968 10.5303 2.03033C10.3897 2.17098 10.1989 2.25 10 2.25C7.857 2.25 6.326 2.252 5.162 2.408C4.02 2.562 3.345 2.852 2.848 3.348C2.352 3.845 2.062 4.52 1.908 5.662C1.752 6.826 1.75 8.357 1.75 10.5C1.75 12.643 1.752 14.174 1.908 15.338C2.062 16.48 2.352 17.155 2.848 17.652C3.345 18.148 4.02 18.438 5.162 18.592C6.326 18.748 7.857 18.75 10 18.75C12.143 18.75 13.674 18.748 14.838 18.592C15.98 18.438 16.655 18.148 17.152 17.652C17.648 17.155 17.938 16.48 18.092 15.338C18.248 14.174 18.25 12.642 18.25 10.5C18.25 10.3011 18.329 10.1103 18.4697 9.96967C18.6103 9.82902 18.8011 9.75 19 9.75C19.1989 9.75 19.3897 9.82902 19.5303 9.96967C19.671 10.1103 19.75 10.3011 19.75 10.5V10.557C19.75 12.63 19.75 14.262 19.579 15.537C19.403 16.847 19.034 17.891 18.212 18.712C17.391 19.534 16.346 19.902 15.038 20.079C13.762 20.25 12.13 20.25 10.057 20.25H9.943C7.87 20.25 6.238 20.25 4.963 20.079C3.653 19.903 2.609 19.534 1.788 18.712C0.966 17.891 0.598 16.846 0.421 15.538C0.25 14.262 0.25 12.63 0.25 10.557V10.443C0.25 8.37 0.25 6.738 0.421 5.463C0.597 4.153 0.966 3.109 1.788 2.288C2.609 1.466 3.654 1.098 4.962 0.921C6.238 0.75 7.87 0.75 9.943 0.75Z" fill="#15475B"/>
</svg>
