<svg width="25" height="26" viewBox="0 0 25 26" fill="none" xmlns="http://www.w3.org/2000/svg">
<path fill-rule="evenodd" clip-rule="evenodd" d="M12.7737 0.502959C10.955 0.46338 9.14957 0.821233 7.48347 1.55154C5.81738 2.28184 4.33076 3.36699 3.12741 4.73124C1.92406 6.09548 1.03297 7.70593 0.51636 9.45016C-0.000248377 11.1944 -0.129929 13.0304 0.136373 14.8299C0.402675 16.6294 1.05854 18.3491 2.05818 19.869C3.05782 21.3888 4.37715 22.6722 5.92404 23.6294C7.47094 24.5867 9.20813 25.1947 11.0143 25.4112C12.8205 25.6277 14.6522 25.4473 16.3815 24.8826C16.677 24.7861 16.922 24.5761 17.0626 24.2989C17.2033 24.0217 17.228 23.7 17.1315 23.4045C17.0349 23.1091 16.825 22.864 16.5478 22.7234C16.2706 22.5827 15.9488 22.558 15.6534 22.6545C13.7742 23.2681 11.7567 23.32 9.84847 22.8037C7.94021 22.2875 6.22411 21.2255 4.91061 19.7481C3.59712 18.2707 2.74334 16.4421 2.45398 14.4865C2.16462 12.531 2.45226 10.5335 3.28163 8.73901C4.11099 6.94454 5.44603 5.43112 7.123 4.38436C8.79997 3.33759 10.746 2.80298 12.7224 2.8461C14.6988 2.88922 16.6196 3.50819 18.2493 4.6271C19.879 5.74601 21.1468 7.31622 21.8971 9.14515C22.015 9.43274 22.2423 9.66172 22.5291 9.78172C22.671 9.84113 22.8233 9.872 22.9772 9.87256C23.1311 9.87312 23.2836 9.84337 23.426 9.78499C23.5684 9.72661 23.6979 9.64076 23.8072 9.53233C23.9164 9.42391 24.0032 9.29503 24.0626 9.15305C24.122 9.01108 24.1529 8.8588 24.1534 8.70489C24.154 8.55099 24.1242 8.39849 24.0659 8.25608C23.1425 6.00498 21.5821 4.0723 19.5763 2.6951C17.5704 1.31789 15.2062 0.55603 12.7737 0.502959ZM13.6721 6.35921C13.6721 6.04841 13.5487 5.75034 13.3289 5.53057C13.1091 5.3108 12.811 5.18733 12.5002 5.18733C12.1894 5.18733 11.8914 5.3108 11.6716 5.53057C11.4518 5.75034 11.3284 6.04841 11.3284 6.35921V12.5155L8.15024 15.692C8.03511 15.7993 7.94276 15.9287 7.87871 16.0724C7.81466 16.2162 7.78022 16.3714 7.77744 16.5287C7.77467 16.6861 7.80361 16.8424 7.86255 16.9883C7.92149 17.1342 8.00922 17.2667 8.12049 17.378C8.23177 17.4893 8.36433 17.577 8.51025 17.636C8.65617 17.6949 8.81246 17.7238 8.96981 17.7211C9.12716 17.7183 9.28233 17.6839 9.42608 17.6198C9.56983 17.5558 9.69921 17.4634 9.80649 17.3483L13.3284 13.828L13.6721 13.4842V6.35921ZM23.4377 23.9373C23.4377 24.3517 23.2731 24.7492 22.9801 25.0422C22.6871 25.3352 22.2896 25.4998 21.8752 25.4998C21.4608 25.4998 21.0634 25.3352 20.7704 25.0422C20.4774 24.7492 20.3127 24.3517 20.3127 23.9373C20.3127 23.5229 20.4774 23.1255 20.7704 22.8325C21.0634 22.5395 21.4608 22.3748 21.8752 22.3748C22.2896 22.3748 22.6871 22.5395 22.9801 22.8325C23.2731 23.1255 23.4377 23.5229 23.4377 23.9373ZM23.0471 14.1717C23.0471 13.8609 22.9237 13.5628 22.7039 13.3431C22.4841 13.1233 22.186 12.9998 21.8752 12.9998C21.5644 12.9998 21.2664 13.1233 21.0466 13.3431C20.8268 13.5628 20.7034 13.8609 20.7034 14.1717V19.6405C20.7034 19.9513 20.8268 20.2493 21.0466 20.4691C21.2664 20.6889 21.5644 20.8123 21.8752 20.8123C22.186 20.8123 22.4841 20.6889 22.7039 20.4691C22.9237 20.2493 23.0471 19.9513 23.0471 19.6405V14.1717Z" fill="#15475B"/>
</svg>
