<svg width="12" height="14" viewBox="0 0 12 14" fill="none" xmlns="http://www.w3.org/2000/svg">
<path d="M7.7265 0.726585C7.47317 0.473252 7.13317 0.333252 6.77984 0.333252H1.99984C1.2665 0.333252 0.666504 0.933252 0.666504 1.66659V12.3333C0.666504 13.0666 1.25984 13.6666 1.99317 13.6666H9.99984C10.7332 13.6666 11.3332 13.0666 11.3332 12.3333V4.88659C11.3332 4.53325 11.1932 4.19325 10.9398 3.94659L7.7265 0.726585ZM7.99984 10.9999H3.99984C3.63317 10.9999 3.33317 10.6999 3.33317 10.3333C3.33317 9.96659 3.63317 9.66659 3.99984 9.66659H7.99984C8.3665 9.66659 8.6665 9.96659 8.6665 10.3333C8.6665 10.6999 8.3665 10.9999 7.99984 10.9999ZM7.99984 8.33325H3.99984C3.63317 8.33325 3.33317 8.03325 3.33317 7.66659C3.33317 7.29992 3.63317 6.99992 3.99984 6.99992H7.99984C8.3665 6.99992 8.6665 7.29992 8.6665 7.66659C8.6665 8.03325 8.3665 8.33325 7.99984 8.33325ZM6.6665 4.33325V1.33325L10.3332 4.99992H7.33317C6.9665 4.99992 6.6665 4.69992 6.6665 4.33325Z" fill="#15475B"/>
</svg>
