<svg width="119" height="119" viewBox="0 0 119 119" fill="none" xmlns="http://www.w3.org/2000/svg">
<path d="M91.7292 44.625H106.604V104.125H91.7292V44.625ZM71.8959 64.4583H86.7709V104.125H71.8959V64.4583ZM52.0625 54.5417H66.9375V104.125H52.0625V54.5417ZM32.2292 79.3333H47.1042V104.125H32.2292V79.3333ZM12.3959 69.4167H27.2709V104.125H12.3959V69.4167Z" fill="white" fill-opacity="0.2"/>
<path d="M19.8334 47.1045C23.941 47.1045 27.2709 43.7746 27.2709 39.667C27.2709 35.5594 23.941 32.2295 19.8334 32.2295C15.7258 32.2295 12.3959 35.5594 12.3959 39.667C12.3959 43.7746 15.7258 47.1045 19.8334 47.1045Z" fill="white"/>
<path d="M39.6667 52.0625C43.7744 52.0625 47.1042 48.7326 47.1042 44.625C47.1042 40.5174 43.7744 37.1875 39.6667 37.1875C35.5591 37.1875 32.2292 40.5174 32.2292 44.625C32.2292 48.7326 35.5591 52.0625 39.6667 52.0625Z" fill="white"/>
<path d="M59.5 34.708C63.6076 34.708 66.9375 31.3781 66.9375 27.2705C66.9375 23.1629 63.6076 19.833 59.5 19.833C55.3924 19.833 52.0625 23.1629 52.0625 27.2705C52.0625 31.3781 55.3924 34.708 59.5 34.708Z" fill="white"/>
<path d="M79.3334 39.667C83.441 39.667 86.7709 36.3371 86.7709 32.2295C86.7709 28.1219 83.441 24.792 79.3334 24.792C75.2258 24.792 71.8959 28.1219 71.8959 32.2295C71.8959 36.3371 75.2258 39.667 79.3334 39.667Z" fill="white"/>
<path d="M99.1667 29.75C103.274 29.75 106.604 26.4201 106.604 22.3125C106.604 18.2049 103.274 14.875 99.1667 14.875C95.0591 14.875 91.7292 18.2049 91.7292 22.3125C91.7292 26.4201 95.0591 29.75 99.1667 29.75Z" fill="white"/>
<path d="M96.9355 17.8496L78.8376 27.0225L58.2605 21.8163L38.4272 39.1704L21.073 34.9559L18.5939 44.3767L40.9064 50.0788L60.7397 32.7246L79.8293 37.435L101.398 26.7746L96.9355 17.8496Z" fill="white" fill-opacity="0.1"/>
</svg>
