<svg width="24" height="24" viewBox="0 0 24 24" fill="none" xmlns="http://www.w3.org/2000/svg">
<path d="M10.383 5.652L9.417 4.848C9.14755 4.6233 8.80785 4.50016 8.457 4.5H3C2.60218 4.5 2.22064 4.65804 1.93934 4.93934C1.65804 5.22064 1.5 5.60218 1.5 6V18C1.5 18.3978 1.65804 18.7794 1.93934 19.0607C2.22064 19.342 2.60218 19.5 3 19.5H21C21.3978 19.5 21.7794 19.342 22.0607 19.0607C22.342 18.7794 22.5 18.3978 22.5 18V7.5C22.5 7.10218 22.342 6.72064 22.0607 6.43934C21.7794 6.15804 21.3978 6 21 6H11.343C10.9921 5.99984 10.6525 5.8767 10.383 5.652Z" fill="#696969"/>
<path d="M18.75 7.5L13.5 9.95475V13.6357C13.5 17.0422 15.7395 20.2268 18.75 21C21.7605 20.2268 24 17.0423 24 13.635V9.95475L18.75 7.5ZM18.75 9.95475C19.118 9.93616 19.483 10.0283 19.7981 10.2192C20.1132 10.4102 20.3638 10.6912 20.5176 11.026C20.6713 11.3608 20.7212 11.734 20.6608 12.0974C20.6004 12.4608 20.4324 12.7978 20.1785 13.0648C19.9247 13.3318 19.5966 13.5166 19.2367 13.5954C18.8768 13.6741 18.5016 13.6431 18.1594 13.5064C17.8173 13.3698 17.524 13.1337 17.3173 12.8286C17.1107 12.5236 17.0003 12.1637 17.0002 11.7952C16.9886 11.3193 17.1663 10.8581 17.4943 10.513C17.8224 10.1679 18.274 9.96713 18.75 9.95475ZM21.7425 17.3175C21.0533 18.4415 19.9957 19.2917 18.75 19.7235C17.5043 19.2917 16.4467 18.4415 15.7575 17.3175C15.5621 17.0199 15.3922 16.7063 15.2498 16.38C15.2498 15.366 16.8307 14.538 18.75 14.538C20.6693 14.538 22.2495 15.348 22.2495 16.3793C22.1077 16.7059 21.938 17.0198 21.7425 17.3175Z" fill="white"/>
</svg>
