<svg width="24" height="24" viewBox="0 0 24 24" fill="none" xmlns="http://www.w3.org/2000/svg">
<g clip-path="url(#clip0_2653_325)">
<path d="M5.875 0.25C7.8775 0.25 8.87875 2.68 7.4725 4.0975C6.055 5.50375 3.625 4.5025 3.625 2.5C3.625 1.90326 3.86205 1.33097 4.28401 0.90901C4.70597 0.487053 5.27826 0.25 5.875 0.25Z" fill="#1D7498"/>
<path d="M4.1875 5.875H7.5625C8.15924 5.875 8.73153 6.11205 9.15349 6.53401C9.57545 6.95597 9.8125 7.52826 9.8125 8.125V14.3125H8.125V22.75H3.625V14.3125H1.9375V8.125C1.9375 7.52826 2.17455 6.95597 2.59651 6.53401C3.01847 6.11205 3.59076 5.875 4.1875 5.875Z" fill="#1D7498"/>
<path d="M21.625 7H14.875V9.25H21.625" fill="#6BC2E6"/>
<path d="M21.625 10.375H18.25V12.625H21.625" fill="#6BC2E6"/>
<path d="M21.625 0.25H14.875V2.5H21.625" fill="#6BC2E6"/>
<path d="M21.625 3.625H18.25V5.875H21.625" fill="#6BC2E6"/>
<path d="M21.625 13.75H14.875V16H21.625" fill="#6BC2E6"/>
<path d="M21.625 20.5H14.875V22.75H21.625" fill="#6BC2E6"/>
<path d="M21.625 17.125H18.25V19.375H21.625" fill="#6BC2E6"/>
</g>
<defs>
<clipPath id="clip0_2653_325">
<rect width="24" height="24" fill="white"/>
</clipPath>
</defs>
</svg>
