<svg width="24" height="24" viewBox="0 0 24 24" fill="none" xmlns="http://www.w3.org/2000/svg">
<path d="M19.792 19.792V9.407C19.7928 9.20593 19.7539 9.00669 19.6774 8.82072C19.6009 8.63475 19.4885 8.46573 19.3465 8.32337C19.2045 8.181 19.0358 8.0681 18.85 7.99116C18.6642 7.91421 18.4651 7.87474 18.264 7.875H5.73702C5.5359 7.87474 5.33671 7.9142 5.15089 7.99114C4.96506 8.06807 4.79627 8.18096 4.6542 8.32331C4.51213 8.46566 4.39957 8.63467 4.323 8.82065C4.24643 9.00662 4.20736 9.20588 4.20802 9.407V19.792H19.792Z" fill="#59889C"/>
<path d="M18.408 7.88393C18.36 7.88393 18.316 7.87793 18.264 7.87793H5.73701C5.53614 7.87767 5.3372 7.91704 5.15157 7.99378C4.96595 8.07053 4.79729 8.18314 4.65526 8.32518C4.51322 8.46721 4.40061 8.63587 4.32386 8.8215C4.24711 9.00712 4.20775 9.20607 4.20801 9.40693V19.7919H6.50001L18.408 7.88393Z" fill="#DDE8E9"/>
<path d="M9.25002 7.875H5.73702C5.5359 7.87474 5.33671 7.9142 5.15089 7.99114C4.96506 8.06807 4.79627 8.18096 4.6542 8.32331C4.51213 8.46566 4.39957 8.63467 4.323 8.82065C4.24643 9.00662 4.20736 9.20588 4.20802 9.407V19.792H19.792V13.833" stroke="#8FAAB3" stroke-linecap="round" stroke-linejoin="round"/>
<path d="M22.542 19.792C22.542 20.1531 22.4709 20.5107 22.3327 20.8444C22.1945 21.178 21.9919 21.4812 21.7365 21.7365C21.4812 21.9919 21.178 22.1945 20.8444 22.3327C20.5107 22.4709 20.1531 22.542 19.792 22.542H4.20898C3.84785 22.542 3.49025 22.4709 3.1566 22.3327C2.82296 22.1945 2.5198 21.9919 2.26444 21.7365C2.00908 21.4812 1.80652 21.178 1.66832 20.8444C1.53012 20.5107 1.45898 20.1531 1.45898 19.792H22.542Z" fill="white" stroke="#8FAAB3" stroke-linecap="round" stroke-linejoin="round"/>
<path d="M16.98 1.45803C16.2564 1.46083 15.5406 1.60742 14.8742 1.88928C14.2078 2.17114 13.604 2.58266 13.0981 3.0999C12.5921 3.61714 12.1939 4.2298 11.9268 4.90226C11.6597 5.57472 11.5289 6.29357 11.542 7.01703C11.5008 8.0406 11.749 9.05505 12.258 9.94403L10.625 13.375L14.055 11.742C14.7862 12.1949 15.6124 12.4719 16.4688 12.5513C17.3251 12.6307 18.1882 12.5103 18.9902 12.1996C19.7921 11.889 20.511 11.3965 21.0904 10.7609C21.6697 10.1253 22.0937 9.3639 22.329 8.53668C22.5642 7.70946 22.6044 6.83893 22.4462 5.99358C22.288 5.14823 21.9358 4.35111 21.4174 3.66492C20.8989 2.97873 20.2284 2.42219 19.4584 2.03907C18.6884 1.65596 17.84 1.45772 16.98 1.45803Z" fill="white" stroke="#8FAAB3" stroke-linecap="round" stroke-linejoin="round"/>
<path d="M15.667 6.04204C15.6668 5.76981 15.7474 5.50363 15.8985 5.2772C16.0496 5.05076 16.2645 4.87424 16.516 4.76997C16.7674 4.6657 17.0442 4.63837 17.3112 4.69143C17.5782 4.74449 17.8235 4.87556 18.016 5.06806C18.2085 5.26056 18.3395 5.50583 18.3926 5.77284C18.4457 6.03985 18.4183 6.3166 18.3141 6.56807C18.2098 6.81955 18.0333 7.03444 17.8068 7.18556C17.5804 7.33668 17.3142 7.41724 17.042 7.41704" stroke="#8FAAB3" stroke-linecap="round" stroke-linejoin="round"/>
<path d="M17.0424 9.25002C17.0106 9.253 16.9784 9.24929 16.9481 9.23914C16.9177 9.22899 16.8898 9.21261 16.8661 9.19106C16.8425 9.1695 16.8236 9.14324 16.8106 9.11396C16.7977 9.08468 16.791 9.05303 16.791 9.02102C16.791 8.98901 16.7977 8.95735 16.8106 8.92807C16.8236 8.89879 16.8425 8.87253 16.8661 8.85098C16.8898 8.82942 16.9177 8.81304 16.9481 8.80289C16.9784 8.79274 17.0106 8.78903 17.0424 8.79202M17.0424 9.25002C17.0743 9.253 17.1065 9.24929 17.1368 9.23914C17.1672 9.22899 17.1951 9.21261 17.2187 9.19106C17.2424 9.1695 17.2613 9.14324 17.2742 9.11396C17.2872 9.08468 17.2939 9.05303 17.2939 9.02102C17.2939 8.98901 17.2872 8.95735 17.2742 8.92807C17.2613 8.89879 17.2424 8.87253 17.2187 8.85098C17.1951 8.82942 17.1672 8.81304 17.1368 8.80289C17.1065 8.79274 17.0743 8.78903 17.0424 8.79202" stroke="#8FAAB3"/>
</svg>
