<svg width="24" height="24" viewBox="0 0 24 24" fill="none" xmlns="http://www.w3.org/2000/svg">
<path fill-rule="evenodd" clip-rule="evenodd" d="M13.5551 2.1686C13.1079 1.82907 12.5618 1.64526 12.0002 1.64526C11.4387 1.64526 10.8926 1.82907 10.4454 2.1686L9.31396 3.02746C5.98959 5.55232 3.14166 8.64929 0.903672 12.1732L0.541957 12.744C0.377401 13.0032 0.285467 13.3018 0.27576 13.6087C0.266052 13.9155 0.338928 14.2194 0.486774 14.4884C0.634619 14.7575 0.852008 14.9819 1.11623 15.1383C1.38045 15.2946 1.68181 15.3771 1.98881 15.3772H3.17339C3.10481 16.9543 3.19053 18.5332 3.43053 20.0949C3.67053 21.648 5.00767 22.7932 6.57796 22.7932H17.4225C18.9945 22.7932 20.33 21.648 20.5682 20.0966C20.8082 18.5332 20.894 16.9526 20.8254 15.3772H22.0117C22.3187 15.3771 22.62 15.2946 22.8843 15.1383C23.1485 14.9819 23.3659 14.7575 23.5137 14.4884C23.6616 14.2194 23.7344 13.9155 23.7247 13.6087C23.715 13.3018 23.6231 13.0032 23.4585 12.744L23.0968 12.1732C20.8588 8.64929 18.0109 5.55232 14.6865 3.02746L13.5551 2.1686Z" fill="#1D7498"/>
<path fill-rule="evenodd" clip-rule="evenodd" d="M14.1431 22.7931V17.1429C14.1431 16.5745 13.9174 16.0295 13.5155 15.6276C13.1136 15.2258 12.5686 15 12.0003 15C11.432 15 10.8869 15.2258 10.4851 15.6276C10.0832 16.0295 9.85742 16.5745 9.85742 17.1429V22.7931H14.1431Z" fill="#6BC2E6"/>
</svg>
