<svg width="22" height="15" viewBox="0 0 22 15" fill="none" xmlns="http://www.w3.org/2000/svg">
<path d="M12.2188 3.375C12.2188 3.1015 12.3274 2.83919 12.5208 2.6458C12.7142 2.4524 12.9765 2.34375 13.25 2.34375H20.125C20.3985 2.34375 20.6608 2.4524 20.8542 2.6458C21.0476 2.83919 21.1563 3.1015 21.1563 3.375C21.1563 3.6485 21.0476 3.91081 20.8542 4.1042C20.6608 4.2976 20.3985 4.40625 20.125 4.40625H13.25C12.9765 4.40625 12.7142 4.2976 12.5208 4.1042C12.3274 3.91081 12.2188 3.6485 12.2188 3.375ZM13.5938 7.5C13.5938 7.2265 13.7024 6.96419 13.8958 6.7708C14.0892 6.5774 14.3515 6.46875 14.625 6.46875H20.125C20.3985 6.46875 20.6608 6.5774 20.8542 6.7708C21.0476 6.96419 21.1563 7.2265 21.1563 7.5C21.1563 7.77351 21.0476 8.03581 20.8542 8.2292C20.6608 8.4226 20.3985 8.53125 20.125 8.53125H14.625C14.3515 8.53125 14.0892 8.4226 13.8958 8.2292C13.7024 8.03581 13.5938 7.77351 13.5938 7.5ZM14.9688 11.625C14.9688 11.3515 15.0774 11.0892 15.2708 10.8958C15.4642 10.7024 15.7265 10.5938 16 10.5938H20.125C20.3985 10.5938 20.6608 10.7024 20.8542 10.8958C21.0476 11.0892 21.1563 11.3515 21.1563 11.625C21.1563 11.8985 21.0476 12.1608 20.8542 12.3542C20.6608 12.5476 20.3985 12.6563 20.125 12.6563H16C15.7265 12.6563 15.4642 12.5476 15.2708 12.3542C15.0774 12.1608 14.9688 11.8985 14.9688 11.625ZM6.375 6.125C7.10435 6.125 7.80382 5.83527 8.31954 5.31954C8.83527 4.80382 9.125 4.10435 9.125 3.375C9.125 2.64565 8.83527 1.94618 8.31954 1.43046C7.80382 0.914731 7.10435 0.625 6.375 0.625C5.64566 0.625 4.94618 0.914731 4.43046 1.43046C3.91473 1.94618 3.625 2.64565 3.625 3.375C3.625 4.10435 3.91473 4.80382 4.43046 5.31954C4.94618 5.83527 5.64566 6.125 6.375 6.125ZM6.375 14.375C11.875 14.375 11.875 13.1444 11.875 11.625C11.875 10.1056 9.41375 8.875 6.375 8.875C3.33625 8.875 0.875 10.1056 0.875 11.625C0.875 13.1444 0.875 14.375 6.375 14.375Z" fill="#1D7498"/>
</svg>
