<svg width="13" height="14" viewBox="0 0 13 14" fill="none" xmlns="http://www.w3.org/2000/svg">
<path d="M6.03125 6.53125L6.05688 6.51875C6.13702 6.47871 6.22696 6.46248 6.31604 6.47197C6.40512 6.48147 6.48962 6.51629 6.55953 6.57232C6.62943 6.62835 6.68182 6.70324 6.71048 6.78812C6.73914 6.873 6.74288 6.96431 6.72125 7.05125L6.27875 8.82375C6.25697 8.91073 6.26059 9.00214 6.28918 9.08712C6.31778 9.17211 6.37015 9.24711 6.44009 9.30323C6.51002 9.35935 6.59458 9.39423 6.68375 9.40374C6.77291 9.41325 6.86293 9.39698 6.94312 9.35687L6.96875 9.34375M12.125 7C12.125 7.73869 11.9795 8.47014 11.6968 9.15259C11.4141 9.83505 10.9998 10.4551 10.4775 10.9775C9.95515 11.4998 9.33505 11.9141 8.65259 12.1968C7.97014 12.4795 7.23869 12.625 6.5 12.625C5.76131 12.625 5.02986 12.4795 4.34741 12.1968C3.66495 11.9141 3.04485 11.4998 2.52252 10.9775C2.00019 10.4551 1.58586 9.83505 1.30318 9.15259C1.02049 8.47014 0.875 7.73869 0.875 7C0.875 5.50816 1.46763 4.07742 2.52252 3.02252C3.57742 1.96763 5.00816 1.375 6.5 1.375C7.99184 1.375 9.42258 1.96763 10.4775 3.02252C11.5324 4.07742 12.125 5.50816 12.125 7ZM6.5 4.65625H6.505V4.66125H6.5V4.65625Z" stroke="#15475B" stroke-linecap="round" stroke-linejoin="round"/>
</svg>
