<svg width="20" height="21" viewBox="0 0 20 21" fill="none" xmlns="http://www.w3.org/2000/svg">
<path fill-rule="evenodd" clip-rule="evenodd" d="M0 10.5C0 4.977 4.477 0.5 10 0.5C15.523 0.5 20 4.977 20 10.5C20 16.023 15.523 20.5 10 20.5C4.477 20.5 0 16.023 0 10.5ZM6 5.5C6 5.36739 6.05268 5.24021 6.14645 5.14645C6.24021 5.05268 6.36739 5 6.5 5H9.5C10.1457 5.00022 10.7662 5.25022 11.2317 5.69766C11.6971 6.1451 11.9715 6.75528 11.9972 7.40042C12.0229 8.04556 11.798 8.67564 11.3696 9.15871C10.9413 9.64178 10.3426 9.94039 9.699 9.992L12 12.293L14.1465 10.1465L14.8535 10.8535L12.707 13L14.8535 15.1465L14.1465 15.8535L12 13.707L9.8535 15.8535L9.1465 15.1465L11.293 13L8.293 10H7V13.5H6V5.5ZM9.5 9H7V6H9.5C9.89782 6 10.2794 6.15804 10.5607 6.43934C10.842 6.72064 11 7.10218 11 7.5C11 7.89782 10.842 8.27936 10.5607 8.56066C10.2794 8.84196 9.89782 9 9.5 9Z" fill="#15475B"/>
</svg>
