<svg width="40" height="40" viewBox="0 0 40 40" fill="none" xmlns="http://www.w3.org/2000/svg">
<g clip-path="url(#clip0_2444_463)">
<path d="M20 13.3333H10C9.66848 13.3333 9.35054 13.465 9.11612 13.6994C8.8817 13.9339 8.75 14.2518 8.75 14.5833C8.75 14.9148 8.8817 15.2328 9.11612 15.4672C9.35054 15.7016 9.66848 15.8333 10 15.8333H20C20.3315 15.8333 20.6495 15.7016 20.8839 15.4672C21.1183 15.2328 21.25 14.9148 21.25 14.5833C21.25 14.2518 21.1183 13.9339 20.8839 13.6994C20.6495 13.465 20.3315 13.3333 20 13.3333ZM20 19.25H10C9.83585 19.25 9.6733 19.2823 9.52165 19.3451C9.36999 19.4079 9.23219 19.5 9.11612 19.6161C9.00004 19.7322 8.90797 19.87 8.84515 20.0216C8.78233 20.1733 8.75 20.3358 8.75 20.5C8.75 20.6641 8.78233 20.8267 8.84515 20.9783C8.90797 21.13 9.00004 21.2678 9.11612 21.3839C9.23219 21.4999 9.36999 21.592 9.52165 21.6548C9.6733 21.7176 9.83585 21.75 10 21.75H20C20.1642 21.75 20.3267 21.7176 20.4784 21.6548C20.63 21.592 20.7678 21.4999 20.8839 21.3839C21 21.2678 21.092 21.13 21.1548 20.9783C21.2177 20.8267 21.25 20.6641 21.25 20.5C21.25 20.3358 21.2177 20.1733 21.1548 20.0216C21.092 19.87 21 19.7322 20.8839 19.6161C20.7678 19.5 20.63 19.4079 20.4784 19.3451C20.3267 19.2823 20.1642 19.25 20 19.25ZM15.85 25.1667H10C9.66848 25.1667 9.35054 25.2983 9.11612 25.5328C8.8817 25.7672 8.75 26.0851 8.75 26.4167C8.75 26.7482 8.8817 27.0661 9.11612 27.3005C9.35054 27.535 9.66848 27.6667 10 27.6667H15.85C16.1815 27.6667 16.4995 27.535 16.7339 27.3005C16.9683 27.0661 17.1 26.7482 17.1 26.4167C17.1 26.0851 16.9683 25.7672 16.7339 25.5328C16.4995 25.2983 16.1815 25.1667 15.85 25.1667Z" fill="white"/>
<path d="M14.3 35H5.83334C5.61232 35 5.40036 34.9122 5.24408 34.7559C5.0878 34.5996 5 34.3876 5 34.1666V9.16663C5 8.94562 5.0878 8.73365 5.24408 8.57737C5.40036 8.42109 5.61232 8.3333 5.83334 8.3333H27.5C27.721 8.3333 27.933 8.42109 28.0893 8.57737C28.2455 8.73365 28.3333 8.94562 28.3333 9.16663V11.1H31.45C32.1152 11.1292 32.7625 11.3239 33.3333 11.6666V5.8333C33.3333 5.17026 33.07 4.53437 32.6011 4.06553C32.1323 3.59669 31.4964 3.3333 30.8333 3.3333H22.5C22.4301 3.32947 22.3621 3.3094 22.3014 3.27468C22.2406 3.23996 22.1888 3.19155 22.15 3.1333C21.5873 2.17957 20.7855 1.3891 19.8239 0.839959C18.8623 0.290815 17.774 0.00198364 16.6667 0.00198364C15.5593 0.00198364 14.4711 0.290815 13.5095 0.839959C12.5478 1.3891 11.7461 2.17957 11.1833 3.1333C11.1446 3.19155 11.0927 3.23996 11.032 3.27468C10.9712 3.3094 10.9032 3.32947 10.8333 3.3333H2.5C1.83696 3.3333 1.20107 3.59669 0.732233 4.06553C0.263392 4.53437 0 5.17026 0 5.8333L0 37.5C0 38.163 0.263392 38.7989 0.732233 39.2677C1.20107 39.7366 1.83696 40 2.5 40H16.3167C15.1597 38.7217 14.4516 37.1007 14.3 35.3833C14.2927 35.2556 14.2927 35.1276 14.3 35Z" fill="white"/>
<path d="M38.5835 31.3167L32.7001 25V15.2667C32.6958 14.9365 32.5627 14.621 32.3292 14.3876C32.0957 14.1541 31.7803 14.021 31.4501 14.0167H25.5335C25.2019 14.0167 24.884 14.1484 24.6496 14.3828C24.4152 14.6172 24.2835 14.9351 24.2835 15.2667V25L18.3335 31.3167C18.1245 31.5744 17.9351 31.8474 17.7668 32.1333C17.7634 32.1944 17.7634 32.2556 17.7668 32.3167C17.6321 32.5613 17.5205 32.818 17.4335 33.0833C17.4437 33.1102 17.4437 33.1398 17.4335 33.1667C17.0727 34.4033 17.1918 35.7306 17.7668 36.8833V36.9833C17.888 37.2161 18.0273 37.439 18.1835 37.65L18.3168 37.85C18.5165 38.083 18.7338 38.3003 18.9668 38.5V38.6C19.9053 39.3741 21.0835 39.7983 22.3001 39.8H34.4168C35.7901 39.8246 37.1184 39.3101 38.1168 38.3667C38.622 37.9021 39.0296 37.3415 39.3157 36.7177C39.6019 36.0939 39.7609 35.4193 39.7835 34.7333C39.7835 34.7333 39.7835 34.6 39.7835 34.5167C39.758 33.3447 39.3349 32.2163 38.5835 31.3167ZM26.7835 25.5667V16.5167H30.2001V25.5667C30.1992 25.887 30.3181 26.1962 30.5335 26.4333L34.7335 30.8833H22.2501L26.4335 26.4333C26.6535 26.1978 26.7783 25.8889 26.7835 25.5667Z" fill="white"/>
</g>
<defs>
<clipPath id="clip0_2444_463">
<rect width="40" height="40" fill="white"/>
</clipPath>
</defs>
</svg>
