<svg width="17" height="13" viewBox="0 0 17 13" fill="none" xmlns="http://www.w3.org/2000/svg">
<path d="M1.51329 12.6666C1.13996 12.6666 0.822181 12.5355 0.559959 12.2733C0.297737 12.0111 0.166626 11.6936 0.166626 11.3208V8.17911C0.166626 7.80688 0.297737 7.48939 0.559959 7.22661C0.822181 6.96439 1.13996 6.83327 1.51329 6.83327H1.83329V2.93411H1.67329C1.47663 2.89911 1.31524 2.808 1.18913 2.66077C1.06301 2.51466 0.999959 2.33494 0.999959 2.12161V1.06411C0.999959 0.819663 1.08301 0.614108 1.24913 0.447441C1.41524 0.280774 1.62079 0.197997 1.86579 0.199108H5.96829C6.21274 0.199108 6.41802 0.282163 6.58413 0.448274C6.75024 0.614385 6.83329 0.819663 6.83329 1.06411V2.12244C6.83329 2.33466 6.77024 2.51411 6.64413 2.66077C6.51801 2.808 6.3569 2.89911 6.16079 2.93411H5.99996V6.83327H11V2.93411H10.84C10.6433 2.89911 10.4819 2.808 10.3558 2.66077C10.2297 2.51466 10.1666 2.33494 10.1666 2.12161V1.06411C10.1666 0.819663 10.2497 0.614108 10.4158 0.447441C10.5819 0.280774 10.7875 0.197997 11.0325 0.199108H15.1341C15.3791 0.199108 15.5847 0.282163 15.7508 0.448274C15.9169 0.614385 16 0.819663 16 1.06411V2.12244C16 2.33466 15.9369 2.51411 15.8108 2.66077C15.6847 2.808 15.5236 2.89911 15.3275 2.93411H15.1666V6.83327H15.4875C15.8597 6.83327 16.1772 6.96439 16.44 7.22661C16.7022 7.48883 16.8333 7.80661 16.8333 8.17994V11.3208C16.8333 11.693 16.7022 12.0105 16.44 12.2733C16.1777 12.5355 15.8602 12.6666 15.4875 12.6666H1.51329ZM11.8333 6.83327H14.3333V2.98744H11.8333V6.83327ZM2.66663 6.83327H5.16663V2.98744H2.66663V6.83327Z" fill="#15475B"/>
</svg>
