<svg width="14" height="13" viewBox="0 0 14 13" fill="none" xmlns="http://www.w3.org/2000/svg">
<path d="M13 3.40812V1.5C13 1.23478 12.8946 0.98043 12.7071 0.792893C12.5196 0.605357 12.2652 0.5 12 0.5H1C0.734784 0.5 0.48043 0.605357 0.292893 0.792893C0.105357 0.98043 0 1.23478 0 1.5V9.5C0 9.76522 0.105357 10.0196 0.292893 10.2071C0.48043 10.3946 0.734784 10.5 1 10.5H8.5V12C8.49921 12.0881 8.52173 12.1749 8.56529 12.2516C8.60885 12.3282 8.6719 12.392 8.74804 12.4364C8.82419 12.4808 8.91072 12.5043 8.99887 12.5045C9.08702 12.5047 9.17366 12.4816 9.25 12.4375L10.75 11.5787L12.25 12.4375C12.3263 12.4816 12.413 12.5047 12.5011 12.5045C12.5893 12.5043 12.6758 12.4808 12.752 12.4364C12.8281 12.392 12.8911 12.3282 12.9347 12.2516C12.9783 12.1749 13.0008 12.0881 13 12V8.09188C13.3161 7.7892 13.5676 7.42567 13.7394 7.0232C13.9113 6.62072 13.9999 6.18762 13.9999 5.75C13.9999 5.31238 13.9113 4.87928 13.7394 4.47681C13.5676 4.07433 13.3161 3.7108 13 3.40812ZM6.5 7H3C2.86739 7 2.74021 6.94732 2.64645 6.85355C2.55268 6.75979 2.5 6.63261 2.5 6.5C2.5 6.36739 2.55268 6.24021 2.64645 6.14645C2.74021 6.05268 2.86739 6 3 6H6.5C6.63261 6 6.75979 6.05268 6.85355 6.14645C6.94732 6.24021 7 6.36739 7 6.5C7 6.63261 6.94732 6.75979 6.85355 6.85355C6.75979 6.94732 6.63261 7 6.5 7ZM6.5 5H3C2.86739 5 2.74021 4.94732 2.64645 4.85355C2.55268 4.75979 2.5 4.63261 2.5 4.5C2.5 4.36739 2.55268 4.24021 2.64645 4.14645C2.74021 4.05268 2.86739 4 3 4H6.5C6.63261 4 6.75979 4.05268 6.85355 4.14645C6.94732 4.24021 7 4.36739 7 4.5C7 4.63261 6.94732 4.75979 6.85355 4.85355C6.75979 4.94732 6.63261 5 6.5 5ZM12 11.1381L11 10.5656C10.9244 10.5224 10.8389 10.4997 10.7519 10.4997C10.6648 10.4997 10.5793 10.5224 10.5037 10.5656L9.50375 11.1381V8.75C9.89973 8.91544 10.3246 9.00063 10.7537 9.00063C11.1829 9.00063 11.6078 8.91544 12.0037 8.75L12 11.1381ZM10.75 8C10.305 8 9.86998 7.86804 9.49997 7.62081C9.12996 7.37357 8.84157 7.02217 8.67127 6.61104C8.50097 6.1999 8.45642 5.7475 8.54323 5.31105C8.63005 4.87459 8.84434 4.47368 9.15901 4.15901C9.47368 3.84434 9.87459 3.63005 10.311 3.54323C10.7475 3.45642 11.1999 3.50097 11.611 3.67127C12.0222 3.84157 12.3736 4.12996 12.6208 4.49997C12.868 4.86998 13 5.30499 13 5.75C13 6.04547 12.9418 6.33805 12.8287 6.61104C12.7157 6.88402 12.5499 7.13206 12.341 7.34099C12.1321 7.54992 11.884 7.71566 11.611 7.82873C11.3381 7.9418 11.0455 8 10.75 8Z" fill="#15475B"/>
</svg>
