<svg width="23" height="23" viewBox="0 0 23 23" fill="none" xmlns="http://www.w3.org/2000/svg">
<path fill-rule="evenodd" clip-rule="evenodd" d="M2.33943 0.443571C2.45501 0.304803 2.59969 0.193141 2.76321 0.116488C2.92674 0.0398355 3.10512 6.77238e-05 3.28572 5.02857e-09H11.5C11.6805 -1.62977e-05 11.8587 0.0396079 12.0222 0.116071C12.1856 0.192535 12.3303 0.303971 12.446 0.442503C12.5616 0.581034 12.6454 0.743279 12.6915 0.917767C12.7375 1.09226 12.7447 1.27473 12.7124 1.45229L12.673 1.6675C13.2597 1.75207 13.7962 2.04527 14.1843 2.49336C14.5723 2.94145 14.7859 3.51439 14.7857 4.10714V5.33929H11.9107C10.6036 5.33929 9.34998 5.85855 8.42569 6.78283C7.5014 7.70712 6.98214 8.96072 6.98214 10.2679V18.0714H2.46429C1.81072 18.0714 1.18392 17.8118 0.721773 17.3497C0.259629 16.8875 6.47939e-08 16.2607 6.47939e-08 15.6071V4.10714C-0.000135797 3.51439 0.213391 2.94145 0.601431 2.49336C0.989472 2.04527 1.52602 1.75207 2.11271 1.6675L2.07329 1.45393C2.04066 1.27605 2.04759 1.09317 2.09359 0.918272C2.13959 0.743374 2.22352 0.580745 2.33943 0.441929M4.76429 2.46429L4.95322 3.50586C5.00478 3.78983 5.1544 4.0467 5.37598 4.23164C5.59755 4.41659 5.87702 4.51788 6.16564 4.51786H8.62336C8.91198 4.51788 9.19145 4.41659 9.41303 4.23164C9.6346 4.0467 9.78422 3.78983 9.83579 3.50586L10.0247 2.46429H4.76429Z" fill="#1D7498"/>
<path fill-rule="evenodd" clip-rule="evenodd" d="M11.9106 7.39282C11.1481 7.39282 10.4169 7.69572 9.87771 8.23489C9.33855 8.77406 9.03564 9.50533 9.03564 10.2678V20.125C9.03564 21.7136 10.3236 23 11.9106 23H20.1249C20.8874 23 21.6187 22.6971 22.1579 22.1579C22.697 21.6187 22.9999 20.8875 22.9999 20.125V10.2678C22.9999 9.50533 22.697 8.77406 22.1579 8.23489C21.6187 7.69572 20.8874 7.39282 20.1249 7.39282H11.9106Z" fill="#6BC2E6"/>
<path d="M13.9643 16.2231C13.692 16.2231 13.4308 16.3313 13.2382 16.5238C13.0457 16.7164 12.9375 16.9776 12.9375 17.2499C12.9375 17.5222 13.0457 17.7834 13.2382 17.9759C13.4308 18.1685 13.692 18.2767 13.9643 18.2767H18.0714C18.3437 18.2767 18.6049 18.1685 18.7975 17.9759C18.99 17.7834 19.0982 17.5222 19.0982 17.2499C19.0982 16.9776 18.99 16.7164 18.7975 16.5238C18.6049 16.3313 18.3437 16.2231 18.0714 16.2231H13.9643ZM12.9375 13.1428C12.9375 12.576 13.3975 12.116 13.9643 12.116H18.0714C18.3437 12.116 18.6049 12.2241 18.7975 12.4167C18.99 12.6093 19.0982 12.8704 19.0982 13.1428C19.0982 13.4151 18.99 13.6762 18.7975 13.8688C18.6049 14.0614 18.3437 14.1695 18.0714 14.1695H13.9643C13.692 14.1695 13.4308 14.0614 13.2382 13.8688C13.0457 13.6762 12.9375 13.4151 12.9375 13.1428Z" fill="#1D7498"/>
</svg>
