<svg width="16" height="19" viewBox="0 0 16 19" fill="none" xmlns="http://www.w3.org/2000/svg">
<path d="M9.72969 5.46106V0.883545H2.99805C2.5504 0.883545 2.19026 1.24369 2.19026 1.69134V9.50004H0.305398C0.157302 9.50004 0.0361328 9.62121 0.0361328 9.7693V10.3078C0.0361328 10.4559 0.157302 10.5771 0.305398 10.5771H5.04784C5.14881 10.5771 5.24305 10.6343 5.29017 10.7252L5.95997 12.0648L7.87176 8.23786C7.96937 8.03927 8.25546 8.03927 8.35307 8.23786L9.52101 10.5771H11.8838C12.18 10.5771 12.4223 10.8194 12.4223 11.1156C12.4223 11.4118 12.18 11.6542 11.8838 11.6542H8.85794L8.1141 10.1665L6.20231 13.9934C6.1047 14.192 5.81861 14.192 5.721 13.9934L4.54969 11.6542H2.19026V17.3087C2.19026 17.7564 2.5504 18.1165 2.99805 18.1165H14.3072C14.7549 18.1165 15.115 17.7564 15.115 17.3087V6.26885H10.5375C10.0932 6.26885 9.72969 5.90534 9.72969 5.46106ZM14.8794 4.41765L11.5843 1.11915C11.4328 0.96769 11.2275 0.883545 11.0121 0.883545H10.8067V5.19179H15.115V4.98648C15.115 4.77443 15.0309 4.56912 14.8794 4.41765Z" fill="#15475B"/>
</svg>
