<svg width="16" height="19" viewBox="0 0 16 19" fill="none" xmlns="http://www.w3.org/2000/svg">
<path d="M9.69355 5.4613V0.883789H2.96192C2.51427 0.883789 2.15412 1.24393 2.15412 1.69159V9.50028H0.269265C0.121169 9.50028 0 9.62145 0 9.76955V10.3081C0 10.4562 0.121169 10.5773 0.269265 10.5773H5.0117C5.11268 10.5773 5.20692 10.6346 5.25404 10.7254L5.92384 12.065L7.83562 8.2381C7.93323 8.03952 8.21933 8.03952 8.31694 8.2381L9.48487 10.5773H11.8477C12.1439 10.5773 12.3862 10.8197 12.3862 11.1159C12.3862 11.4121 12.1439 11.6544 11.8477 11.6544H8.82181L8.07796 10.1667L6.16618 13.9936C6.06857 14.1922 5.78247 14.1922 5.68487 13.9936L4.51356 11.6544H2.15412V17.309C2.15412 17.7566 2.51427 18.1168 2.96192 18.1168H14.2711C14.7187 18.1168 15.0789 17.7566 15.0789 17.309V6.2691H10.5014C10.0571 6.2691 9.69355 5.90559 9.69355 5.4613ZM14.8433 4.4179L11.5481 1.1194C11.3967 0.967935 11.1913 0.883789 10.9759 0.883789H10.7706V5.19204H15.0789V4.98672C15.0789 4.77467 14.9947 4.56936 14.8433 4.4179Z" fill="white"/>
</svg>
