<svg width="30" height="31" viewBox="0 0 30 31" fill="none" xmlns="http://www.w3.org/2000/svg">
<path d="M7.15723 10.1094L5.39062 15.541V25.1094H24.6094V15.541L22.8428 10.1094H7.15723ZM19.3359 18.8984C19.3359 19.0273 19.2305 19.1328 19.1016 19.1328H15.9375V22.2969C15.9375 22.4258 15.832 22.5312 15.7031 22.5312H14.2969C14.168 22.5312 14.0625 22.4258 14.0625 22.2969V19.1328H10.8984C10.7695 19.1328 10.6641 19.0273 10.6641 18.8984V17.4922C10.6641 17.3633 10.7695 17.2578 10.8984 17.2578H14.0625V14.0938C14.0625 13.9648 14.168 13.8594 14.2969 13.8594H15.7031C15.832 13.8594 15.9375 13.9648 15.9375 14.0938V17.2578H19.1016C19.2305 17.2578 19.3359 17.3633 19.3359 17.4922V18.8984Z" fill="#15475B"/>
<path d="M19.1016 17.2578H15.9375V14.0938C15.9375 13.9648 15.832 13.8594 15.7031 13.8594H14.2969C14.168 13.8594 14.0625 13.9648 14.0625 14.0938V17.2578H10.8984C10.7695 17.2578 10.6641 17.3633 10.6641 17.4922V18.8984C10.6641 19.0273 10.7695 19.1328 10.8984 19.1328H14.0625V22.2969C14.0625 22.4258 14.168 22.5312 14.2969 22.5312H15.7031C15.832 22.5312 15.9375 22.4258 15.9375 22.2969V19.1328H19.1016C19.2305 19.1328 19.3359 19.0273 19.3359 18.8984V17.4922C19.3359 17.3633 19.2305 17.2578 19.1016 17.2578Z" fill="white"/>
<path d="M24.5859 8.64746C24.5248 8.45939 24.4057 8.29549 24.2457 8.1792C24.0857 8.06291 23.8931 8.00019 23.6953 8H21.5625V4.71875C21.5625 4.2002 21.1436 3.78125 20.625 3.78125H9.375C8.85645 3.78125 8.4375 4.2002 8.4375 4.71875V8H6.30469C6.10681 7.99974 5.91395 8.06229 5.7539 8.17864C5.59384 8.295 5.47485 8.45915 5.41406 8.64746L3.28125 15.207V26.2812C3.28125 26.7998 3.7002 27.2188 4.21875 27.2188H25.7812C26.2998 27.2188 26.7188 26.7998 26.7188 26.2812V15.207L24.5859 8.64746ZM10.5469 5.89062H19.4531V8H10.5469V5.89062ZM24.6094 25.1094H5.39062V15.541L7.15723 10.1094H22.8428L24.6094 15.541V25.1094Z" fill="#15475B"/>
</svg>
