<svg width="28" height="14" viewBox="0 0 28 14" fill="none" xmlns="http://www.w3.org/2000/svg">
<path d="M14 6.56341C15.597 6.56341 16.9705 5.13741 16.9705 3.28041C16.9705 1.44591 15.5895 0.0869141 14 0.0869141C12.4105 0.0869141 11.029 1.47591 11.029 3.29541C11.029 5.13741 12.403 6.56341 14 6.56341ZM5.4515 6.73391C6.833 6.73391 8.0365 5.48641 8.0365 3.87491C8.0365 2.27791 6.8255 1.09691 5.4515 1.09691C4.07 1.09691 2.852 2.30741 2.8595 3.88941C2.8595 5.48641 4.0625 6.73441 5.4515 6.73441M22.5485 6.73441C23.9375 6.73441 25.1405 5.48691 25.1405 3.88991C25.1405 2.30791 23.93 1.09741 22.5485 1.09741C21.1745 1.09741 19.9635 2.27841 19.9635 3.87491C19.9635 5.48691 21.167 6.73441 22.5485 6.73441ZM1.307 13.4409H6.952C6.1795 12.3194 7.1225 10.0614 8.7195 8.82841C7.8945 8.27891 6.833 7.87041 5.4445 7.87041C2.094 7.87041 0 10.3434 0 12.4009C0 13.0694 0.3715 13.4409 1.307 13.4409ZM26.693 13.4409C27.636 13.4409 28 13.0694 28 12.4009C28 10.3434 25.9055 7.87041 22.556 7.87041C21.167 7.87041 20.105 8.27891 19.281 8.82841C20.8775 10.0614 21.821 12.3194 21.0485 13.4409H26.693ZM9.328 13.4409H18.664C19.83 13.4409 20.246 13.1064 20.246 12.4529C20.246 10.5369 17.847 7.89291 13.9925 7.89291C10.1455 7.89291 7.7465 10.5369 7.7465 12.4529C7.7465 13.1064 8.162 13.4409 9.328 13.4409Z" fill="white"/>
</svg>
