<svg width="27" height="23" viewBox="0 0 27 23" fill="none" xmlns="http://www.w3.org/2000/svg">
<path d="M25.2664 9.70737C25.4292 8.71815 25.3758 7.70542 25.1061 6.73167C24.7499 5.4453 24.0162 4.22707 22.9051 3.22111C21.7941 2.21516 20.4486 1.5509 19.0279 1.22835C17.9524 0.984183 16.8338 0.935825 15.7412 1.08328" stroke="#1D7498" stroke-width="2" stroke-linecap="round" stroke-linejoin="round"/>
<path d="M20.3766 9.23878C20.5511 8.1791 20.1879 7.06085 19.2869 6.24512C18.3859 5.42938 17.1509 5.10044 15.9805 5.25841" stroke="#1D7498" stroke-width="2" stroke-linecap="round" stroke-linejoin="round"/>
<path d="M7.61079 2.81689C8.07886 2.81689 8.51014 3.04676 8.73737 3.4173L10.3135 5.98793C10.5199 6.32451 10.5296 6.73162 10.3394 7.07596L8.821 9.82556C8.821 9.82556 9.26104 11.8739 11.1026 13.5413C12.9443 15.2087 15.199 15.6003 15.199 15.6003L18.2355 14.2257C18.616 14.0534 19.066 14.0623 19.4379 14.2495L22.2851 15.6828C22.6941 15.8886 22.9476 16.2789 22.9476 16.7024V19.662C22.9476 21.1691 21.4014 22.2577 19.8241 21.7758C16.5848 20.7862 11.5564 18.9019 8.36923 16.0162C5.18205 13.1306 3.1009 8.57781 2.00787 5.64487C1.47568 4.21681 2.67796 2.81689 4.34255 2.81689H7.61079Z" fill="#6BC2E6" stroke="#1D7498" stroke-width="2" stroke-linejoin="round"/>
</svg>
