<svg width="24" height="24" viewBox="0 0 24 24" fill="none" xmlns="http://www.w3.org/2000/svg">
<path opacity="0.5" d="M3.98987 13.6019C2.71537 12.3272 1.99942 10.5985 1.99951 8.796C1.99961 6.9935 2.71574 5.26485 3.99037 3.99036C5.265 2.71586 6.99372 1.99991 8.79622 2C10.5987 2.00009 12.3274 2.71623 13.6019 3.99086L20.0089 10.3979C20.6505 11.0265 21.1611 11.7761 21.5112 12.6034C21.8613 13.4306 22.044 14.319 22.0486 15.2173C22.0532 16.1155 21.8797 17.0058 21.5381 17.8366C21.1965 18.6674 20.6935 19.4222 20.0584 20.0574C19.4233 20.6926 18.6685 21.1956 17.8378 21.5373C17.007 21.879 16.1168 22.0526 15.2185 22.0481C14.3203 22.0435 13.4318 21.861 12.6045 21.511C11.7773 21.161 11.0276 20.6504 10.3989 20.0089L3.98987 13.6019Z" fill="#15475B"/>
<path d="M7.8072 17.4197L6.5542 16.1657L7.0492 16.0707H7.0502L7.0642 16.0667C7.07887 16.064 7.1032 16.0584 7.1372 16.0497C7.2072 16.0337 7.31253 16.0034 7.4532 15.9587C7.7342 15.8687 8.1502 15.7157 8.6632 15.4687C9.6872 14.9757 11.1002 14.1047 12.6022 12.6027C14.1022 11.1017 14.9742 9.68769 15.4682 8.66269C15.7152 8.15069 15.8682 7.73569 15.9582 7.45369C15.9994 7.32553 16.0355 7.19576 16.0662 7.06469L16.0692 7.05069L16.1652 6.55469L17.4182 7.80769L17.3862 7.91069C17.2297 8.39116 17.0402 8.86027 16.8192 9.31469C16.2592 10.4767 15.2942 12.0317 13.6622 13.6637C12.0312 15.2947 10.4752 16.2607 9.3142 16.8197C8.82732 17.0565 8.32361 17.257 7.8072 17.4197Z" fill="#15475B"/>
</svg>
