<svg width="24" height="24" viewBox="0 0 24 24" fill="none" xmlns="http://www.w3.org/2000/svg">
<path opacity="0.5" d="M3.98999 13.6019C2.71549 12.3272 1.99954 10.5985 1.99963 8.796C1.99973 6.9935 2.71586 5.26485 3.99049 3.99036C5.26512 2.71586 6.99384 1.99991 8.79634 2C10.5988 2.00009 12.3275 2.71623 13.602 3.99086L20.009 10.3979C20.6506 11.0265 21.1612 11.7761 21.5113 12.6034C21.8615 13.4306 22.0441 14.319 22.0487 15.2173C22.0533 16.1155 21.8798 17.0058 21.5382 17.8366C21.1966 18.6674 20.6937 19.4222 20.0585 20.0574C19.4234 20.6926 18.6686 21.1956 17.8379 21.5373C17.0071 21.879 16.1169 22.0526 15.2186 22.0481C14.3204 22.0435 13.4319 21.861 12.6047 21.511C11.7774 21.161 11.0277 20.6504 10.399 20.0089L3.98999 13.6019Z" fill="white"/>
<path d="M7.80702 17.4197L6.55402 16.1657L7.04902 16.0707H7.05002L7.06402 16.0667C7.07868 16.064 7.10302 16.0584 7.13702 16.0497C7.20702 16.0337 7.31235 16.0034 7.45302 15.9587C7.73402 15.8687 8.15002 15.7157 8.66302 15.4687C9.68702 14.9757 11.1 14.1047 12.602 12.6027C14.102 11.1017 14.974 9.68769 15.468 8.66269C15.715 8.15069 15.868 7.73569 15.958 7.45369C15.9992 7.32553 16.0353 7.19576 16.066 7.06469L16.069 7.05069L16.165 6.55469L17.418 7.80769L17.386 7.91069C17.2295 8.39116 17.04 8.86027 16.819 9.31469C16.259 10.4767 15.294 12.0317 13.662 13.6637C12.031 15.2947 10.475 16.2607 9.31402 16.8197C8.82713 17.0565 8.32343 17.257 7.80702 17.4197Z" fill="white"/>
</svg>
