<svg width="16" height="16" viewBox="0 0 16 16" fill="none" xmlns="http://www.w3.org/2000/svg">
<g clip-path="url(#clip0_2437_673)">
<path d="M3.5 7.99998L9.8 1.69998C10.2 1.29998 10.8 0.999976 11.5 0.999976C12.2 0.999976 12.8 1.29998 13.3 1.69998C14.3 2.69998 14.3 4.29998 13.3 5.19998L10.5 7.99998H11.9L13.9 5.99998C15.3 4.59998 15.3 2.39998 13.9 1.09998C13.2 0.399976 12.3 0.0999756 11.4 0.0999756C10.5 0.0999756 9.7 0.299976 9 0.999976L2.7 7.39998C2.4 7.59998 2.2 7.89998 2 8.29998C2.5 8.09998 3 7.99998 3.5 7.99998Z" fill="#15475B"/>
<path d="M7.3 5.59998L4.9 7.99998H9.6L7.3 5.59998ZM12.5 8.99998H3.5C1.6 8.99998 0 10.6 0 12.5C0 14.4 1.6 16 3.5 16H12.5C14.4 16 16 14.4 16 12.5C16 10.6 14.4 8.99998 12.5 8.99998ZM12.5 15H8V11H3.5C2.4 11 1.5 11.6 1 12.2C1.2 11 2.2 9.99998 3.5 9.99998H12.5C13.9 9.99998 15 11.1 15 12.5C15 13.9 13.9 15 12.5 15Z" fill="#15475B"/>
</g>
<defs>
<clipPath id="clip0_2437_673">
<rect width="16" height="16" fill="white"/>
</clipPath>
</defs>
</svg>
