<svg width="16" height="17" viewBox="0 0 16 17" fill="none" xmlns="http://www.w3.org/2000/svg">
<g clip-path="url(#clip0_2514_63)">
<path d="M0.598633 9.50125C0.598633 9.50125 0.601133 9.97125 0.604883 10.0575C0.611133 10.225 0.703633 10.3012 0.886133 10.2975C1.06863 10.2925 6.14613 10.3512 6.14613 10.3512L6.22863 8.7575L0.598633 9.50125ZM9.42363 9.285L9.74238 10.3112C9.74238 10.3112 14.8749 10.3112 15.0636 10.3212C15.2524 10.3312 15.3524 10.2613 15.3624 10.0825C15.3724 9.9025 15.3899 9.18 15.3899 9.18L11.7949 8.6875L9.42363 9.285ZM5.92488 14.76C5.92488 14.76 5.92113 15.4475 5.91988 15.5875C5.91738 15.8512 5.98488 16.0712 6.51363 16.0712C7.04238 16.0712 9.18488 16.0613 9.40363 16.0513C9.62238 16.0413 9.79613 15.9225 9.80613 15.6737C9.81613 15.425 9.87238 14.4775 9.77238 14.4875C9.67238 14.4975 7.44988 14.4975 7.44988 14.4975L5.92488 14.76Z" fill="#B4BBC2"/>
<path d="M0.983771 6.57353C0.685021 6.58478 0.605021 6.69353 0.595021 7.02228C0.585021 7.35103 0.595021 9.18478 0.595021 9.35478C0.595021 9.52478 0.605021 9.77353 0.823771 9.78353C1.04252 9.79353 5.92627 9.79353 5.92627 9.79353V14.756C5.92627 15.0248 6.12502 15.3635 6.66377 15.4035C7.20252 15.4435 8.76627 15.4235 9.13502 15.4235C9.50377 15.4235 9.80252 15.2835 9.82252 14.9648C9.84252 14.646 9.84252 9.79228 9.84252 9.79228C9.84252 9.79228 14.715 9.76353 14.955 9.76228C15.2938 9.76103 15.3838 9.57353 15.3938 9.11478C15.4038 8.65603 15.3738 7.23103 15.3738 6.98228C15.3738 6.73353 15.2138 6.58353 14.835 6.60353C14.4563 6.62353 9.79252 6.58353 9.79252 6.58353V1.34478C9.79252 1.10603 9.70002 0.969782 9.29377 0.973532C9.01502 0.976032 6.55002 0.968532 6.34002 0.963532C6.07502 0.957282 5.95377 1.14228 5.95627 1.44103C5.95877 1.72978 5.93627 6.59353 5.93627 6.59353C5.93627 6.59353 1.25252 6.56353 0.983771 6.57353Z" fill="#15475B"/>
<path d="M1.21241 7.14255C1.01366 7.3613 0.973656 8.65755 1.33241 8.65755C1.73366 8.65755 1.60116 8.03005 2.14991 7.82005C2.69866 7.61005 2.95491 7.5013 2.96741 7.27255C2.98616 6.90255 1.43241 6.90005 1.21241 7.14255ZM8.18741 1.62755C8.20366 1.8913 7.52491 2.0038 7.25866 2.2588C6.99116 2.5138 6.82116 2.9213 6.62116 2.91505C6.42116 2.9088 6.28116 2.53255 6.32991 2.10755C6.37866 1.68255 6.73741 1.42755 7.27116 1.3913C7.80491 1.35505 8.17491 1.42755 8.18741 1.62755Z" fill="white"/>
</g>
<defs>
<clipPath id="clip0_2514_63">
<rect width="16" height="16" fill="white" transform="translate(0 0.5)"/>
</clipPath>
</defs>
</svg>
