<svg width="30" height="39" viewBox="0 0 30 39" fill="none" xmlns="http://www.w3.org/2000/svg">
<path fill-rule="evenodd" clip-rule="evenodd" d="M8.22894 20.42H6.50757V29.2325C6.50757 30.0116 6.19808 30.7587 5.64719 31.3096C5.09631 31.8605 4.34914 32.17 3.57007 32.17C2.79099 32.17 2.04383 31.8605 1.49294 31.3096C0.942054 30.7587 0.632568 30.0116 0.632568 29.2325V5.73251C0.632568 4.43405 1.14838 3.18878 2.06652 2.27063C2.98467 1.35248 4.22995 0.836672 5.5284 0.836672H14.3409C16.7655 0.834966 19.1046 1.7329 20.9052 3.35665C22.7058 4.98039 23.8399 7.21446 24.0881 9.62636C24.3362 12.0383 23.6806 14.4564 22.2483 16.4127C20.8159 18.3691 18.7087 19.7244 16.3345 20.2163L21.1951 25.0808L24.9942 21.2817C25.5485 20.7468 26.2907 20.4511 27.0609 20.4582C27.8311 20.4652 28.5677 20.7745 29.1121 21.3194C29.6565 21.8643 29.965 22.6012 29.9714 23.3714C29.9777 24.1416 29.6813 24.8835 29.1459 25.4373L25.3507 29.2325L29.1498 33.0317C29.6847 33.5859 29.9804 34.3281 29.9733 35.0983C29.9663 35.8685 29.657 36.6051 29.1121 37.1495C28.5672 37.6939 27.8303 38.0025 27.0601 38.0088C26.2899 38.0151 25.548 37.7187 24.9942 37.1833L21.1951 33.3881L17.3959 37.1873C16.8416 37.7221 16.0995 38.0178 15.3293 38.0108C14.5591 38.0037 13.8224 37.6944 13.2781 37.1495C12.7337 36.6047 12.4251 35.8677 12.4188 35.0975C12.4124 34.3273 12.7089 33.5854 13.2442 33.0317L17.0395 29.2325L8.22894 20.42ZM6.50757 14.545V6.71167H14.3409C15.3797 6.71167 16.3759 7.12432 17.1104 7.85884C17.8449 8.59335 18.2576 9.58957 18.2576 10.6283C18.2576 11.6671 17.8449 12.6633 17.1104 13.3978C16.3759 14.1324 15.3797 14.545 14.3409 14.545H6.50757Z" fill="white"/>
</svg>
