<svg width="16" height="16" viewBox="0 0 16 16" fill="none" xmlns="http://www.w3.org/2000/svg">
<g clip-path="url(#clip0_2672_655)">
<path d="M0.598755 9.00125C0.598755 9.00125 0.601255 9.47125 0.605005 9.5575C0.611255 9.725 0.703755 9.80125 0.886255 9.7975C1.06875 9.7925 6.14625 9.85125 6.14625 9.85125L6.22875 8.2575L0.598755 9.00125ZM9.42375 8.785L9.74251 9.81125C9.74251 9.81125 14.875 9.81125 15.0638 9.82125C15.2525 9.83125 15.3525 9.76125 15.3625 9.5825C15.3725 9.4025 15.39 8.68 15.39 8.68L11.795 8.1875L9.42375 8.785ZM5.925 14.26C5.925 14.26 5.92125 14.9475 5.92 15.0875C5.9175 15.3512 5.985 15.5712 6.51375 15.5712C7.0425 15.5712 9.18501 15.5613 9.40376 15.5513C9.62251 15.5413 9.79625 15.4225 9.80625 15.1737C9.81625 14.925 9.87251 13.9775 9.7725 13.9875C9.6725 13.9975 7.45 13.9975 7.45 13.9975L5.925 14.26Z" fill="#B4BBC2"/>
<path d="M0.983771 6.07402C0.685021 6.08527 0.605021 6.19402 0.595021 6.52277C0.585021 6.85152 0.595021 8.68527 0.595021 8.85527C0.595021 9.02527 0.605021 9.27402 0.823771 9.28402C1.04252 9.29402 5.92627 9.29402 5.92627 9.29402V14.2565C5.92627 14.5253 6.12502 14.864 6.66377 14.904C7.20252 14.944 8.76627 14.924 9.13502 14.924C9.50377 14.924 9.80252 14.784 9.82252 14.4653C9.84252 14.1465 9.84252 9.29277 9.84252 9.29277C9.84252 9.29277 14.715 9.26402 14.955 9.26277C15.2938 9.26152 15.3838 9.07402 15.3938 8.61527C15.4038 8.15652 15.3738 6.73152 15.3738 6.48277C15.3738 6.23402 15.2138 6.08402 14.835 6.10402C14.4563 6.12402 9.79252 6.08402 9.79252 6.08402V0.845271C9.79252 0.606521 9.70002 0.470271 9.29377 0.474021C9.01502 0.476521 6.55002 0.469021 6.34002 0.464021C6.07502 0.457771 5.95377 0.642771 5.95627 0.941521C5.95877 1.23027 5.93627 6.09402 5.93627 6.09402C5.93627 6.09402 1.25252 6.06402 0.983771 6.07402Z" fill="#9C3725"/>
<path d="M1.21253 6.64206C1.01378 6.86081 0.973778 8.15706 1.33253 8.15706C1.73378 8.15706 1.60128 7.52956 2.15003 7.31956C2.69878 7.10956 2.95503 7.00081 2.96753 6.77206C2.98628 6.40206 1.43253 6.39956 1.21253 6.64206ZM8.18753 1.12706C8.20378 1.39081 7.52503 1.50331 7.25878 1.75831C6.99128 2.01331 6.82128 2.42081 6.62128 2.41456C6.42128 2.40831 6.28128 2.03206 6.33003 1.60706C6.37878 1.18206 6.73753 0.927063 7.27128 0.890813C7.80503 0.854563 8.17503 0.927063 8.18753 1.12706Z" fill="white"/>
</g>
<defs>
<clipPath id="clip0_2672_655">
<rect width="16" height="16" fill="white"/>
</clipPath>
</defs>
</svg>
