<svg width="27" height="27" viewBox="0 0 27 27" fill="none" xmlns="http://www.w3.org/2000/svg">
<path fill-rule="evenodd" clip-rule="evenodd" d="M5.27288 25.9031C6.99694 26.0224 9.86513 26.1562 14.0625 26.1562C18.2599 26.1562 21.1275 26.0224 22.8521 25.9031C24.4384 25.7934 25.7209 24.606 25.8784 22.9927C26.0173 21.5724 26.1563 19.3832 26.1563 16.3125C26.1563 13.2418 26.0173 11.0526 25.8784 9.63225C25.7209 8.019 24.4384 6.831 22.8521 6.72187C21.1281 6.60262 18.2599 6.46875 14.0625 6.46875C9.86513 6.46875 6.9975 6.60262 5.27288 6.72187C3.68663 6.83156 2.40413 8.019 2.24663 9.63225C2.10769 11.0526 1.96875 13.2418 1.96875 16.3125C1.96875 19.3832 2.10769 21.5724 2.24663 22.9927C2.40413 24.606 3.68663 25.794 5.27288 25.9031Z" fill="#6BC2E6"/>
<path fill-rule="evenodd" clip-rule="evenodd" d="M20.0959 0.848697C21.9038 0.757572 23.4923 1.9332 23.8681 3.71745C24.0593 4.62476 24.2843 5.80995 24.5183 7.3017C24.0254 6.96161 23.4497 6.76122 22.8522 6.72176C21.1281 6.60251 18.2599 6.46864 14.0626 6.46864C9.86518 6.46864 6.99756 6.60251 5.27293 6.72176C3.68668 6.83145 2.40418 8.01889 2.24668 9.63214C2.10774 11.0524 1.96881 13.2417 1.96881 16.3124C1.96881 16.6135 1.97012 16.906 1.97274 17.1899C1.78318 15.9925 1.61422 14.792 1.46593 13.5888C1.06881 10.3909 0.90737 8.06501 0.847182 6.51701C0.775182 4.69451 2.03124 3.1707 3.80931 2.82589C5.50131 2.49851 8.15293 2.05076 11.9222 1.59345C15.691 1.13557 18.3741 0.935322 20.0954 0.848697M6.18756 20.5311C5.96378 20.5311 5.74917 20.62 5.59094 20.7783C5.4327 20.9365 5.34381 21.1511 5.34381 21.3749C5.34381 21.5987 5.4327 21.8133 5.59094 21.9715C5.74917 22.1297 5.96378 22.2186 6.18756 22.2186H21.9376C22.1613 22.2186 22.3759 22.1297 22.5342 21.9715C22.6924 21.8133 22.7813 21.5987 22.7813 21.3749C22.7813 21.1511 22.6924 20.9365 22.5342 20.7783C22.3759 20.62 22.1613 20.5311 21.9376 20.5311H6.18756Z" fill="#1D7498"/>
<path d="M5.34375 18C5.34375 17.7762 5.43264 17.5616 5.59088 17.4034C5.74911 17.2452 5.96372 17.1563 6.1875 17.1563H10.6875C10.9113 17.1563 11.1259 17.2452 11.2841 17.4034C11.4424 17.5616 11.5312 17.7762 11.5312 18C11.5312 18.2238 11.4424 18.4384 11.2841 18.5966C11.1259 18.7549 10.9113 18.8438 10.6875 18.8438H6.1875C5.96372 18.8438 5.74911 18.7549 5.59088 18.5966C5.43264 18.4384 5.34375 18.2238 5.34375 18ZM5.34375 14.625C5.34375 14.4012 5.43264 14.1866 5.59088 14.0284C5.74911 13.8702 5.96372 13.7813 6.1875 13.7813H10.6875C10.9113 13.7813 11.1259 13.8702 11.2841 14.0284C11.4424 14.1866 11.5312 14.4012 11.5312 14.625C11.5312 14.8488 11.4424 15.0634 11.2841 15.2216C11.1259 15.3799 10.9113 15.4688 10.6875 15.4688H6.1875C5.96372 15.4688 5.74911 15.3799 5.59088 15.2216C5.43264 15.0634 5.34375 14.8488 5.34375 14.625ZM5.34375 11.25C5.34375 11.0262 5.43264 10.8116 5.59088 10.6534C5.74911 10.4952 5.96372 10.4063 6.1875 10.4063H10.6875C10.9113 10.4063 11.1259 10.4952 11.2841 10.6534C11.4424 10.8116 11.5312 11.0262 11.5312 11.25C11.5312 11.4738 11.4424 11.6884 11.2841 11.8466C11.1259 12.0049 10.9113 12.0938 10.6875 12.0938H6.1875C5.96372 12.0938 5.74911 12.0049 5.59088 11.8466C5.43264 11.6884 5.34375 11.4738 5.34375 11.25ZM15.4305 18.7706C16.0386 18.81 16.8857 18.8438 18 18.8438C19.1143 18.8438 19.9614 18.81 20.5695 18.7706C20.9804 18.7486 21.3687 18.5755 21.6597 18.2846C21.9508 17.9936 22.124 17.6054 22.1462 17.1945C22.1856 16.5864 22.2188 15.7393 22.2188 14.625C22.2188 13.5107 22.185 12.6636 22.1456 12.0555C22.1236 11.6446 21.9505 11.2563 21.6596 10.9653C21.3686 10.6742 20.9804 10.501 20.5695 10.4788C19.714 10.4274 18.8571 10.4032 18 10.4063C16.8862 10.4063 16.0386 10.44 15.4305 10.4794C15.0196 10.5014 14.6313 10.6745 14.3403 10.9654C14.0492 11.2564 13.876 11.6446 13.8538 12.0555C13.8024 12.911 13.7782 13.768 13.7812 14.625C13.7812 15.7388 13.815 16.5864 13.8544 17.1945C13.8764 17.6054 14.0495 17.9937 14.3404 18.2847C14.6314 18.5758 15.0196 18.7485 15.4305 18.7706Z" fill="#1D7498"/>
</svg>
