<svg width="20" height="20" viewBox="0 0 20 20" fill="none" xmlns="http://www.w3.org/2000/svg">
<path fill-rule="evenodd" clip-rule="evenodd" d="M10.5 17.5C11.4193 17.5 12.3295 17.3189 13.1788 16.9672C14.0281 16.6154 14.7997 16.0998 15.4497 15.4497C16.0998 14.7997 16.6154 14.0281 16.9672 13.1788C17.3189 12.3295 17.5 11.4193 17.5 10.5C17.5 9.58075 17.3189 8.67049 16.9672 7.82122C16.6154 6.97194 16.0998 6.20026 15.4497 5.55025C14.7997 4.90024 14.0281 4.38463 13.1788 4.03284C12.3295 3.68106 11.4193 3.5 10.5 3.5C8.64348 3.5 6.86301 4.2375 5.55025 5.55025C4.2375 6.86301 3.5 8.64348 3.5 10.5C3.5 12.3565 4.2375 14.137 5.55025 15.4497C6.86301 16.7625 8.64348 17.5 10.5 17.5ZM8.587 5.88C9.19354 5.62899 9.84357 5.49986 10.5 5.5C10.6326 5.5 10.7598 5.44732 10.8536 5.35355C10.9473 5.25979 11 5.13261 11 5C11 4.86739 10.9473 4.74021 10.8536 4.64645C10.7598 4.55268 10.6326 4.5 10.5 4.5C8.9087 4.5 7.38258 5.13214 6.25736 6.25736C5.13214 7.38258 4.5 8.9087 4.5 10.5C4.5 10.6326 4.55268 10.7598 4.64645 10.8536C4.74021 10.9473 4.86739 11 5 11C5.13261 11 5.25979 10.9473 5.35355 10.8536C5.44732 10.7598 5.5 10.6326 5.5 10.5C5.49992 9.51094 5.79317 8.54408 6.34266 7.72171C6.89215 6.89934 7.6732 6.25841 8.587 5.88Z" fill="black" fill-opacity="0.25"/>
<path d="M19 19L15.5 15.5" stroke="#15475B" stroke-linecap="round"/>
<path d="M9.5 18C14.1944 18 18 14.1944 18 9.5C18 4.80558 14.1944 1 9.5 1C4.80558 1 1 4.80558 1 9.5C1 14.1944 4.80558 18 9.5 18Z" stroke="#15475B"/>
</svg>
