<svg width="25" height="26" viewBox="0 0 25 26" fill="none" xmlns="http://www.w3.org/2000/svg">
<g clip-path="url(#clip0_2660_1729)">
<path fill-rule="evenodd" clip-rule="evenodd" d="M3.10709 0.762081C3.92674 0.67101 4.79638 0.588867 5.69459 0.588867C6.59102 0.588867 7.46245 0.67101 8.27674 0.762081C9.01032 0.8461 9.69366 1.17661 10.215 1.69953C10.7363 2.22245 11.0646 2.90682 11.1464 3.64065C11.2339 4.45315 11.3107 5.31565 11.3107 6.20494C11.3095 6.62637 11.2946 7.04006 11.266 7.44601C10.3082 7.87192 9.43664 8.46991 8.69459 9.2103C7.95539 9.9509 7.35804 10.8206 6.93209 11.7764C6.52025 11.8061 6.10751 11.8216 5.69459 11.8228C4.79638 11.8228 3.92674 11.7407 3.11067 11.6496C2.37676 11.5659 1.69301 11.2356 1.17135 10.7126C0.649695 10.1897 0.321053 9.50512 0.239237 8.77101C0.140494 7.91904 0.0856597 7.06255 0.0749512 6.20494C0.0749512 5.31565 0.151737 4.45315 0.239237 3.64065C0.320898 2.90709 0.649025 2.22293 1.16997 1.70004C1.69091 1.17715 2.37384 0.846478 3.10709 0.762081ZM6.20531 14.1764C6.03394 14.1706 5.86249 14.1677 5.69102 14.1674C4.79459 14.1674 3.92317 14.2496 3.10888 14.3407C2.3753 14.4247 1.69196 14.7552 1.17066 15.2781C0.64936 15.801 0.320976 16.4854 0.239237 17.2192C0.140494 18.0712 0.0856597 18.9277 0.0749512 19.7853C0.0749512 20.6746 0.151737 21.5389 0.239237 22.3514C0.399951 23.8585 1.60531 25.0621 3.10888 25.2299C3.96574 25.3351 4.82779 25.3923 5.69102 25.4014C6.55485 25.3923 7.4175 25.3351 8.27495 25.2299C8.89995 25.1585 9.47138 24.9121 9.93924 24.5389C9.49164 24.2369 9.07423 23.8924 8.69281 23.5103C6.77852 21.5978 6.02138 19.0157 6.02138 16.3603C6.01863 15.6283 6.08017 14.8976 6.20531 14.1764ZM24.0392 10.4817C24.4428 9.99486 24.6937 9.3998 24.7607 8.77101C24.8482 7.95851 24.925 7.09601 24.925 6.20494C24.925 5.31565 24.8482 4.45315 24.7607 3.64065C24.6793 2.90697 24.3513 2.22263 23.8303 1.69969C23.3093 1.17674 22.6262 0.846167 21.8928 0.762081C21.0348 0.656242 20.1716 0.598414 19.3071 0.588867C18.4107 0.588867 17.5392 0.67101 16.725 0.762081C15.9914 0.8461 15.308 1.17661 14.7867 1.69953C14.2654 2.22245 13.937 2.90682 13.8553 3.64065C13.7566 4.49203 13.7018 5.34793 13.691 6.20494C13.691 6.37756 13.6934 6.5478 13.6982 6.71565C14.4066 6.59519 15.1242 6.53604 15.8428 6.53887C18.4982 6.53887 21.0803 7.29601 22.9928 9.2103C23.3892 9.60672 23.738 10.0305 24.0392 10.4817Z" fill="#15475B"/>
<path fill-rule="evenodd" clip-rule="evenodd" d="M10.9321 16.3608C10.9321 14.6072 11.4214 13.4268 12.1643 12.6822C12.9089 11.9393 14.0893 11.4501 15.8428 11.4501C17.5964 11.4501 18.7768 11.9393 19.5214 12.6822C20.2643 13.4268 20.7535 14.6072 20.7535 16.3608C20.7535 18.1143 20.2643 19.2947 19.5214 20.0393C18.7768 20.7822 17.5964 21.2715 15.8428 21.2715C14.0893 21.2715 12.9089 20.7822 12.1643 20.0393C11.4214 19.2947 10.9321 18.1143 10.9321 16.3608ZM15.8428 8.77148C13.5964 8.77148 11.6518 9.4072 10.2714 10.7893C8.89104 12.1715 8.25354 14.1143 8.25354 16.3608C8.25354 18.6072 8.88925 20.5518 10.2714 21.9322C11.6535 23.3126 13.5964 23.9501 15.8428 23.9501C17.566 23.9501 19.1107 23.5751 20.3607 22.7786L22.6 25.0179C22.8539 25.2545 23.1897 25.3833 23.5366 25.3772C23.8836 25.371 24.2146 25.2305 24.46 24.9851C24.7054 24.7397 24.8459 24.4087 24.8521 24.0617C24.8582 23.7147 24.7294 23.3789 24.4928 23.1251L22.2553 20.8858C23.0571 19.6358 23.4339 18.0876 23.4339 16.3608C23.4339 14.1143 22.7964 12.1697 21.416 10.7893C20.0339 9.4072 18.0893 8.77148 15.8446 8.77148H15.8428Z" fill="#15475B"/>
</g>
<defs>
<clipPath id="clip0_2660_1729">
<rect width="25" height="25" fill="white" transform="translate(0 0.5)"/>
</clipPath>
</defs>
</svg>
