<svg width="22" height="22" viewBox="0 0 22 22" fill="none" xmlns="http://www.w3.org/2000/svg">
<path fill-rule="evenodd" clip-rule="evenodd" d="M11.0028 0C17.0797 0 22.0056 4.92596 22.0056 11.0028C22.0056 17.0797 17.0797 22.0056 11.0028 22.0056C4.92596 22.0056 0 17.0797 0 11.0028C0 4.92596 4.92596 0 11.0028 0ZM14.0836 13.046C13.2621 13.8543 12.1552 14.3061 11.0028 14.3036C9.8504 14.3061 8.74347 13.8543 7.92202 13.046C7.81937 12.9425 7.69715 12.8603 7.56249 12.8044C7.42782 12.7485 7.28338 12.7199 7.13757 12.7203C6.99175 12.7207 6.84747 12.7501 6.71312 12.8068C6.57876 12.8634 6.457 12.9462 6.35492 13.0503C6.25284 13.1545 6.17247 13.2778 6.11849 13.4133C6.06451 13.5487 6.038 13.6936 6.04048 13.8394C6.04297 13.9852 6.0744 14.129 6.13297 14.2625C6.19153 14.3961 6.27606 14.5166 6.38163 14.6172C7.61437 15.8288 9.27435 16.5066 11.0028 16.5042C12.7313 16.5066 14.3912 15.8288 15.624 14.6172C15.8275 14.4119 15.942 14.1348 15.9428 13.8457C15.9436 13.5566 15.8306 13.2788 15.6282 13.0724C15.4259 12.8659 15.1504 12.7474 14.8613 12.7425C14.5723 12.7376 14.2929 12.8466 14.0836 13.046ZM7.15182 6.60168C6.7141 6.60168 6.29431 6.77557 5.9848 7.08508C5.67528 7.39459 5.5014 7.81438 5.5014 8.2521C5.5014 8.68982 5.67528 9.10961 5.9848 9.41913C6.29431 9.72864 6.7141 9.90252 7.15182 9.90252C7.58954 9.90252 8.00933 9.72864 8.31885 9.41913C8.62836 9.10961 8.80224 8.68982 8.80224 8.2521C8.80224 7.81438 8.62836 7.39459 8.31885 7.08508C8.00933 6.77557 7.58954 6.60168 7.15182 6.60168ZM14.8538 6.60168C14.4161 6.60168 13.9963 6.77557 13.6868 7.08508C13.3772 7.39459 13.2034 7.81438 13.2034 8.2521C13.2034 8.68982 13.3772 9.10961 13.6868 9.41913C13.9963 9.72864 14.4161 9.90252 14.8538 9.90252C15.2915 9.90252 15.7113 9.72864 16.0208 9.41913C16.3303 9.10961 16.5042 8.68982 16.5042 8.2521C16.5042 7.81438 16.3303 7.39459 16.0208 7.08508C15.7113 6.77557 15.2915 6.60168 14.8538 6.60168Z" fill="#429ABF"/>
</svg>
