<svg width="18" height="18" viewBox="0 0 18 18" fill="none" xmlns="http://www.w3.org/2000/svg">
<path d="M7.81263 16.9166H4.71722C3.49409 16.9166 2.52113 16.3213 1.64792 15.4892C-0.141243 13.7848 2.79584 12.4231 3.91605 11.7565C5.9348 10.5532 8.37155 10.2761 10.5835 10.9221M12.5626 4.64575C12.5626 5.59059 12.1873 6.49672 11.5192 7.16482C10.8511 7.83292 9.94497 8.20825 9.00013 8.20825C8.0553 8.20825 7.14916 7.83292 6.48107 7.16482C5.81297 6.49672 5.43763 5.59059 5.43763 4.64575C5.43763 3.70092 5.81297 2.79478 6.48107 2.12668C7.14916 1.45859 8.0553 1.08325 9.00013 1.08325C9.94497 1.08325 10.8511 1.45859 11.5192 2.12668C12.1873 2.79478 12.5626 3.70092 12.5626 4.64575ZM14.0929 10.4637C14.3581 10.1755 14.4911 10.0315 14.6321 9.94754C14.7989 9.84829 14.9888 9.79458 15.1829 9.7918C15.377 9.78903 15.5684 9.83727 15.738 9.93171C15.8805 10.0109 16.0183 10.151 16.2922 10.4305C16.5653 10.7099 16.7023 10.85 16.7798 10.9957C16.9683 11.3496 16.9619 11.7779 16.764 12.1254C16.6817 12.2695 16.5408 12.4049 16.2589 12.6764L12.9094 15.9025C12.3758 16.417 12.109 16.6735 11.7757 16.8042C11.4424 16.934 11.0751 16.9245 10.3428 16.9055L10.2423 16.9031C10.019 16.8968 9.90817 16.8936 9.84326 16.82C9.77834 16.7464 9.78705 16.6332 9.80447 16.406L9.81397 16.2825C9.86384 15.6428 9.88918 15.3222 10.0143 15.0348C10.1386 14.7474 10.3547 14.5139 10.7853 14.0468L14.0929 10.4637Z" stroke="#15475B" stroke-width="1.5" stroke-linecap="round" stroke-linejoin="round"/>
</svg>
