<svg width="25" height="25" viewBox="0 0 25 25" fill="none" xmlns="http://www.w3.org/2000/svg">
<path fill-rule="evenodd" clip-rule="evenodd" d="M17.648 11.9497C17.2894 11.9497 16.9455 12.0967 16.692 12.3584C16.4384 12.6202 16.296 12.9751 16.296 13.3452C16.296 13.7153 16.4384 14.0703 16.692 14.332C16.9455 14.5937 17.2894 14.7408 17.648 14.7408H18.7711C19.0758 14.7408 19.22 14.804 19.3606 14.9361C19.5337 15.0999 19.7897 15.4534 20.0709 16.2219C19.2431 16.2706 18.4403 16.533 17.7361 16.9848C17.0319 17.4366 16.4487 18.0636 16.04 18.8082L15.5298 19.7404C15.0081 19.8148 14.5234 20.0607 14.1476 20.4415C13.7718 20.8224 13.5248 21.318 13.4432 21.855C13.3616 22.3921 13.4497 22.942 13.6945 23.4233C13.9392 23.9046 14.3277 24.2918 14.8023 24.5275C15.2768 24.7632 15.8123 24.8349 16.3295 24.732C16.8466 24.6291 17.3179 24.357 17.6736 23.956C18.0293 23.5551 18.2504 23.0466 18.3042 22.5059C18.358 21.9651 18.2417 21.4208 17.9725 20.9536L18.3926 20.1852C18.5889 19.8266 18.8739 19.5283 19.2185 19.3207C19.5631 19.1131 19.9549 19.0037 20.3539 19.0036H20.9831L21.322 20.0586C20.8783 20.3239 20.5265 20.7261 20.316 21.2087C20.1055 21.6913 20.047 22.2298 20.1487 22.7485C20.2505 23.2672 20.5073 23.7399 20.8831 24.1C21.2589 24.46 21.7346 24.6893 22.2433 24.7556C22.752 24.8218 23.2681 24.7216 23.7187 24.4692C24.1693 24.2167 24.5319 23.8247 24.7552 23.3483C24.9786 22.8719 25.0515 22.3353 24.9637 21.8138C24.8759 21.2924 24.6319 20.8126 24.2659 20.4419C23.9035 19.2228 23.5213 18.0101 23.1194 16.8043L22.7588 15.6953C22.3658 14.4821 21.8755 13.522 21.1778 12.8708C20.4261 12.1655 19.5788 11.9497 18.7711 11.9497H17.648Z" fill="#15475B"/>
<path fill-rule="evenodd" clip-rule="evenodd" d="M10.2931 3.34368C10.2931 5.48348 9.12675 6.68735 7.0536 6.68735C4.98044 6.68735 3.81406 5.48348 3.81406 3.34368C3.81406 1.20387 4.98044 0 7.0536 0C9.12675 0 10.2931 1.20387 10.2931 3.34368ZM3.19031 11.5996C3.24979 10.9278 3.48567 10.2855 3.87255 9.74187C4.25943 9.19819 4.78265 8.77374 5.38589 8.5142C5.98913 8.25465 6.64954 8.16986 7.296 8.26894C7.94247 8.36802 8.5505 8.64722 9.05464 9.07649C10.2625 9.83751 12.4925 10.779 14.0194 11.1344C14.1953 11.1719 14.3622 11.2453 14.5103 11.3501C14.6584 11.4549 14.7848 11.5892 14.8822 11.745C14.9795 11.9008 15.0457 12.0751 15.0771 12.2576C15.1084 12.4401 15.1042 12.6273 15.0646 12.8081C15.0251 12.989 14.9511 13.1599 14.8469 13.3108C14.7427 13.4618 14.6103 13.5898 14.4576 13.6875C14.305 13.7851 14.135 13.8503 13.9576 13.8793C13.7802 13.9084 13.599 13.9007 13.4245 13.8566C12.3573 13.5902 11.3121 13.2374 10.2985 12.8016L9.75231 18.9977V23.5788C9.75231 23.9489 9.60986 24.3038 9.3563 24.5656C9.10274 24.8273 8.75884 24.9743 8.40025 24.9743C8.04166 24.9743 7.69776 24.8273 7.4442 24.5656C7.19064 24.3038 7.04819 23.9489 7.04819 23.5788V19.3922H5.1517C5.12485 19.4655 5.09354 19.537 5.05796 19.6062L2.54673 24.2579C2.46247 24.422 2.34731 24.5672 2.20801 24.6847C2.06871 24.8023 1.90807 24.89 1.7355 24.9427C1.56294 24.9954 1.38192 25.012 1.20306 24.9915C1.0242 24.971 0.851105 24.9139 0.693911 24.8235C0.536716 24.7331 0.39859 24.6112 0.287628 24.465C0.176666 24.3187 0.0951019 24.1511 0.0477164 23.9719C0.000330868 23.7928 -0.0119225 23.6056 0.0116746 23.4215C0.0352717 23.2373 0.0942444 23.0599 0.185136 22.8996L2.58639 18.4488L3.19031 11.6015V11.5996Z" fill="#15475B"/>
</svg>
